<svg width="1240" height="477" viewBox="0 0 1240 477" fill="none" xmlns="http://www.w3.org/2000/svg">
<mask id="mask0" mask-type="alpha" maskUnits="userSpaceOnUse" x="0" y="0" width="1240" height="477">
<rect width="1240" height="477" rx="10" fill="#FF6666"/>
</mask>
<g mask="url(#mask0)">
<rect width="1240" height="477" rx="10" fill="#FF6666"/>
<path d="M983.846 475.442C980.567 468.974 964.828 456.434 959.581 467.126C959.581 467.126 959.581 467.258 959.45 467.258C956.696 467.654 954.335 469.634 954.466 473.33C954.859 483.889 961.286 494.581 971.517 498.013C984.895 502.501 988.306 484.417 983.846 475.442Z" fill="#F8D597"/>
<path d="M944.76 450.626C942.399 448.118 939.513 448.382 937.284 449.702C936.234 449.966 935.185 450.494 934.267 451.418C930.726 454.982 929.283 459.866 930.07 464.882C930.857 469.898 934.529 475.046 939.776 475.706C946.596 476.498 949.744 470.162 950.137 464.222C950.4 459.206 948.17 454.19 944.76 450.626Z" fill="#F8D597"/>
<path d="M961.942 438.615C961.548 438.219 961.024 437.955 960.63 437.691C959.581 436.899 958.138 436.371 956.827 436.371C953.154 436.503 950.793 439.143 950.531 442.707C950.006 448.646 955.122 457.358 962.073 454.454C968.894 451.682 966.664 442.311 961.942 438.615Z" fill="#F8D597"/>
<path d="M1000.5 448.382C998.143 443.63 993.027 441.519 988.174 440.859C984.502 440.331 980.829 442.311 979.78 446.138C979.518 447.062 979.518 448.118 979.518 449.042C978.731 451.286 979.124 453.794 980.829 455.774C983.846 459.206 988.568 461.978 993.29 462.11C1000.77 462.374 1003.26 453.926 1000.5 448.382Z" fill="#F8D597"/>
<path d="M981.879 418.683C978.6 414.855 973.747 413.139 969.156 411.687C963.647 409.971 960.368 415.647 961.68 419.871C961.417 420.927 961.286 422.115 961.68 423.171C963.516 427.791 966.139 431.751 970.205 434.655C974.927 438.219 981.485 439.671 984.633 433.203C986.994 428.319 985.158 422.511 981.879 418.683Z" fill="#F8D597"/>
<path d="M1008.64 472.142C1007.19 468.842 1004.57 466.862 1001.29 465.542C999.061 464.618 996.438 465.674 994.864 467.522C994.208 467.786 993.552 468.05 992.896 468.314C989.879 470.294 989.092 473.858 990.666 477.026C992.24 480.062 994.208 483.098 996.7 485.474C999.061 487.717 1002.34 488.641 1005.36 487.057C1007.19 486.002 1008.37 484.418 1009.16 482.57C1010.47 479.138 1010.21 475.442 1008.64 472.142Z" fill="#F8D597"/>
<path d="M929.283 475.178C929.02 471.746 926.66 468.842 922.987 468.842C922.331 468.842 921.675 468.974 921.151 469.238C919.97 469.106 918.79 469.37 917.741 470.162C914.462 472.67 911.969 475.574 910.92 479.666C909.609 484.154 910.527 489.17 914.855 491.545C924.299 496.561 929.939 482.438 929.283 475.178Z" fill="#F8D597"/>
<path d="M926.922 424.623C925.741 423.303 924.299 422.775 922.987 422.643C920.233 420.663 915.904 420.399 913.543 424.095C910.264 429.111 907.51 434.787 908.69 440.99C909.609 446.006 913.937 451.946 919.446 451.946C925.348 451.946 929.152 445.478 930.594 440.462C932.299 434.787 930.988 428.979 926.922 424.623Z" fill="#F8D597"/>
<path d="M946.858 411.819C944.366 410.367 940.825 410.895 938.989 413.007C938.464 413.271 938.071 413.403 937.808 413.667C935.054 415.515 933.611 419.343 935.578 422.379C937.152 424.887 938.595 427.923 940.825 430.035C944.497 433.599 950.662 432.543 952.629 427.659C954.99 421.851 952.105 414.855 946.858 411.819Z" fill="#F8D597"/>
<path d="M1006.67 426.339C1005.62 425.679 1004.57 424.887 1003.39 424.227C1000.63 422.379 996.306 423.567 994.732 426.471C993.027 429.639 994.077 433.203 996.962 435.183C998.011 435.843 999.061 436.635 1000.24 437.295C1003 439.143 1007.32 437.955 1008.9 435.051C1010.6 431.883 1009.68 428.319 1006.67 426.339Z" fill="#F8D597"/>
<path d="M911.707 452.87C909.477 450.362 905.018 450.494 902.788 452.87C900.952 454.85 900.558 457.49 901.477 459.734C901.477 462.506 903.313 465.278 906.067 465.938C909.477 466.73 912.888 464.882 913.806 461.45C914.855 458.414 913.937 455.378 911.707 452.87Z" fill="#F8D597"/>
<path opacity="0.1" d="M753.109 517.125C714.505 481.804 674.798 447.586 634.539 413.92C636.745 414.472 638.951 414.472 641.157 415.024C685.276 422.751 731.049 427.718 772.411 446.482C772.962 446.482 773.514 447.034 774.065 447.034C806.051 468.006 843.001 418.335 812.118 390.74C778.477 360.938 745.939 330.032 714.505 298.573C760.278 301.885 806.051 305.748 851.825 310.163C858.442 310.715 863.957 309.611 868.921 307.956C886.017 306.3 901.458 294.158 897.046 272.082C887.671 226.826 879.399 181.571 871.678 136.315C888.774 136.867 905.87 138.523 922.966 140.178C930.687 141.282 937.856 139.626 943.371 136.315C954.401 135.763 964.328 129.692 970.394 116.999C992.453 69.5353 1012.31 20.9682 1030.51 -28.7026C1045.4 -69.5432 983.63 -96.5862 968.188 -55.7457C952.195 -12.6976 935.099 29.2467 916.348 71.191C887.671 68.4315 858.442 67.3277 829.765 67.8796C811.566 68.4315 797.779 88.2999 799.985 105.409V105.961C799.433 108.72 799.433 112.032 799.985 115.343C806.051 156.735 813.221 197.576 821.493 238.968C759.175 233.449 696.306 228.482 633.988 225.171C594.281 222.963 582.148 279.809 614.686 290.295C633.988 310.715 653.29 331.135 672.592 351.004C669.283 350.452 665.423 349.9 662.114 349.348C612.48 340.518 562.846 331.687 512.661 322.857C475.712 316.234 463.028 364.801 487.844 383.566C489.499 385.221 491.153 386.325 492.808 387.981C568.913 444.826 641.709 504.983 711.747 569.556C743.182 599.358 785.095 546.376 753.109 517.125Z" fill="white"/>
</g>
<path d="M747.543 293.515C746.681 323.87 744.44 355.253 723.754 379.434C705.308 401.043 676.865 412.533 648.421 411.332C586.707 408.417 543.61 351.652 552.057 292.143C552.057 291.457 552.229 290.943 552.574 290.428C552.229 287.342 553.609 284.083 557.401 282.711C567.572 279.453 578.777 279.967 589.465 279.453C601.877 278.767 614.461 278.252 627.045 277.566C632.044 277.395 634.113 281.339 633.768 285.112C634.113 286.141 634.113 287.17 633.941 288.37C631.7 302.262 622.218 360.398 652.041 351.995C663.936 348.737 665.142 333.988 667.556 323.87C670.314 312.38 672.9 300.718 675.658 289.228C676.52 285.284 679.968 283.74 683.071 284.255C683.415 284.255 683.588 284.083 683.933 284.083C702.723 283.74 721.513 284.083 740.475 285.284C743.406 285.455 745.474 287.17 746.509 289.228C747.198 290.428 747.543 291.8 747.543 293.515Z" fill="#F8D597"/>
<path d="M973.543 148.515C972.681 178.87 970.44 210.254 949.754 234.434C931.308 256.043 902.865 267.533 874.421 266.332C812.707 263.417 769.61 206.652 778.057 147.143C778.057 146.458 778.229 145.943 778.574 145.429C778.229 142.342 779.609 139.083 783.401 137.711C793.572 134.453 804.777 134.967 815.465 134.453C827.877 133.767 840.461 133.252 853.045 132.566C858.044 132.395 860.113 136.339 859.768 140.112C860.113 141.141 860.113 142.17 859.941 143.371C857.7 157.262 848.218 215.398 878.041 206.995C889.936 203.737 891.142 188.988 893.556 178.87C896.314 167.38 898.9 155.718 901.658 144.228C902.52 140.284 905.968 138.74 909.071 139.255C909.415 139.255 909.588 139.083 909.933 139.083C928.723 138.74 947.513 139.083 966.475 140.284C969.406 140.455 971.474 142.17 972.509 144.228C973.198 145.429 973.543 146.8 973.543 148.515Z" fill="#F8D597"/>
<path d="M1204.54 281.515C1203.68 311.87 1201.44 343.254 1180.75 367.434C1162.31 389.043 1133.86 400.533 1105.42 399.332C1043.71 396.417 1000.61 339.652 1009.06 280.143C1009.06 279.458 1009.23 278.943 1009.57 278.429C1009.23 275.342 1010.61 272.083 1014.4 270.711C1024.57 267.453 1035.78 267.967 1046.46 267.453C1058.88 266.767 1071.46 266.252 1084.05 265.566C1089.04 265.395 1091.11 269.339 1090.77 273.112C1091.11 274.141 1091.11 275.17 1090.94 276.371C1088.7 290.262 1079.22 348.398 1109.04 339.995C1120.94 336.737 1122.14 321.988 1124.56 311.87C1127.31 300.38 1129.9 288.718 1132.66 277.228C1133.52 273.284 1136.97 271.74 1140.07 272.255C1140.42 272.255 1140.59 272.083 1140.93 272.083C1159.72 271.74 1178.51 272.083 1197.48 273.284C1200.41 273.455 1202.47 275.17 1203.51 277.228C1204.2 278.429 1204.54 279.8 1204.54 281.515Z" fill="#F8D597"/>
</svg>
