<svg width="156" height="71" viewBox="0 0 156 71" fill="none" xmlns="http://www.w3.org/2000/svg">
<path d="M15.0615 11.6094L23.6309 38.3193L32.1738 11.6094H44.3555V50H35.0742V41.0352L35.9707 22.6836L26.6895 50H20.5723L11.2646 22.6572L12.1611 41.0352V50H2.90625V11.6094H15.0615ZM100.122 35.709L96.3252 39.875V50H87.0703V11.6094H96.3252V28.5371L99.542 23.6592L107.821 11.6094H119.265L106.292 28.5898L119.265 50H108.296L100.122 35.709Z" fill="white"/>
<path d="M72.0674 42.8281H59.3848L57.1699 50H47.2822L61.3623 11.6094H70.0635L84.249 50H74.3086L72.0674 42.8281ZM61.5996 35.6826H69.8525L65.7129 22.3672L61.5996 35.6826ZM154.122 31.5957C154.122 35.3398 153.428 38.6533 152.039 41.5361C150.65 44.4189 148.673 46.6426 146.106 48.207C143.558 49.7539 140.648 50.5273 137.379 50.5273C134.109 50.5273 131.209 49.7803 128.678 48.2861C126.146 46.7744 124.169 44.6211 122.745 41.8262C121.339 39.0312 120.601 35.8232 120.53 32.2021V30.04C120.53 26.2783 121.216 22.9648 122.587 20.0996C123.976 17.2168 125.953 14.9932 128.52 13.4287C131.104 11.8643 134.039 11.082 137.326 11.082C140.578 11.082 143.479 11.8555 146.027 13.4023C148.576 14.9492 150.554 17.1553 151.96 20.0205C153.384 22.8682 154.104 26.1377 154.122 29.8291V31.5957ZM144.709 29.9873C144.709 26.1729 144.067 23.2812 142.784 21.3125C141.519 19.3262 139.699 18.333 137.326 18.333C132.686 18.333 130.233 21.8135 129.97 28.7744L129.943 31.5957C129.943 35.3574 130.567 38.249 131.815 40.2705C133.063 42.292 134.918 43.3027 137.379 43.3027C139.717 43.3027 141.519 42.3096 142.784 40.3232C144.05 38.3369 144.691 35.4805 144.709 31.7539V29.9873Z" fill="#F1AC2E"/>
<path d="M39.9238 66.6191H44.4424V68H38.1943V58.0469H39.9238V66.6191ZM48.8652 68.1367C47.8125 68.1367 46.958 67.8063 46.3018 67.1455C45.6501 66.4801 45.3242 65.596 45.3242 64.4932V64.2881C45.3242 63.5498 45.4655 62.8913 45.748 62.3125C46.0352 61.7292 46.4362 61.2757 46.9512 60.9521C47.4661 60.6286 48.0404 60.4668 48.6738 60.4668C49.681 60.4668 50.458 60.7881 51.0049 61.4307C51.5563 62.0732 51.832 62.9824 51.832 64.1582V64.8281H46.999C47.0492 65.4388 47.252 65.9219 47.6074 66.2773C47.9674 66.6328 48.4186 66.8105 48.9609 66.8105C49.722 66.8105 50.3418 66.5029 50.8203 65.8877L51.7158 66.7422C51.4196 67.1842 51.0231 67.5283 50.5264 67.7744C50.0342 68.016 49.4805 68.1367 48.8652 68.1367ZM48.667 61.7998C48.2113 61.7998 47.8421 61.9593 47.5596 62.2783C47.2816 62.5973 47.1038 63.0417 47.0264 63.6113H50.1914V63.4883C50.1549 62.9323 50.0068 62.513 49.7471 62.2305C49.4873 61.9434 49.1273 61.7998 48.667 61.7998ZM57.5469 68C57.474 67.8587 57.4102 67.6286 57.3555 67.3096C56.8268 67.861 56.1797 68.1367 55.4141 68.1367C54.6712 68.1367 54.0651 67.9248 53.5957 67.501C53.1263 67.0771 52.8916 66.5531 52.8916 65.9287C52.8916 65.1403 53.1833 64.5365 53.7666 64.1172C54.3545 63.6934 55.193 63.4814 56.2822 63.4814H57.3008V62.9961C57.3008 62.6133 57.1937 62.3079 56.9795 62.0801C56.7653 61.8477 56.4395 61.7314 56.002 61.7314C55.6237 61.7314 55.3138 61.8271 55.0723 62.0186C54.8307 62.2054 54.71 62.4447 54.71 62.7363H53.0488C53.0488 62.3307 53.1833 61.9525 53.4521 61.6016C53.721 61.2461 54.0856 60.9681 54.5459 60.7676C55.0107 60.5671 55.528 60.4668 56.0977 60.4668C56.9635 60.4668 57.654 60.6855 58.1689 61.123C58.6839 61.556 58.9482 62.1667 58.9619 62.9551V66.291C58.9619 66.9564 59.0553 67.4873 59.2422 67.8838V68H57.5469ZM55.7217 66.8037C56.0498 66.8037 56.3574 66.724 56.6445 66.5645C56.9362 66.4049 57.1549 66.1908 57.3008 65.9219V64.5273H56.4053C55.79 64.5273 55.3275 64.6344 55.0176 64.8486C54.7077 65.0628 54.5527 65.3659 54.5527 65.7578C54.5527 66.0768 54.6576 66.332 54.8672 66.5234C55.0814 66.7103 55.3662 66.8037 55.7217 66.8037ZM64.5742 62.1211C64.3555 62.0846 64.1299 62.0664 63.8975 62.0664C63.1364 62.0664 62.6237 62.3581 62.3594 62.9414V68H60.6982V60.6035H62.2842L62.3252 61.4307C62.7262 60.7881 63.2822 60.4668 63.9932 60.4668C64.2301 60.4668 64.4261 60.4987 64.5811 60.5625L64.5742 62.1211ZM67.165 60.6035L67.2129 61.458C67.7598 60.7972 68.4775 60.4668 69.3662 60.4668C70.9066 60.4668 71.6904 61.3486 71.7178 63.1123V68H70.0566V63.208C70.0566 62.7386 69.9541 62.3923 69.749 62.1689C69.5485 61.9411 69.2181 61.8271 68.7578 61.8271C68.0879 61.8271 67.5889 62.1302 67.2607 62.7363V68H65.5996V60.6035H67.165ZM75.1836 68H73.5225V60.6035H75.1836V68ZM73.4199 58.6826C73.4199 58.4274 73.4997 58.2155 73.6592 58.0469C73.8232 57.8783 74.0557 57.7939 74.3564 57.7939C74.6572 57.7939 74.8896 57.8783 75.0537 58.0469C75.2178 58.2155 75.2998 58.4274 75.2998 58.6826C75.2998 58.9333 75.2178 59.1429 75.0537 59.3115C74.8896 59.4756 74.6572 59.5576 74.3564 59.5576C74.0557 59.5576 73.8232 59.4756 73.6592 59.3115C73.4997 59.1429 73.4199 58.9333 73.4199 58.6826ZM78.54 60.6035L78.5879 61.458C79.1348 60.7972 79.8525 60.4668 80.7412 60.4668C82.2816 60.4668 83.0654 61.3486 83.0928 63.1123V68H81.4316V63.208C81.4316 62.7386 81.3291 62.3923 81.124 62.1689C80.9235 61.9411 80.5931 61.8271 80.1328 61.8271C79.4629 61.8271 78.9639 62.1302 78.6357 62.7363V68H76.9746V60.6035H78.54ZM84.501 64.2471C84.501 63.0986 84.7699 62.1826 85.3076 61.499C85.8499 60.8109 86.5677 60.4668 87.4609 60.4668C88.304 60.4668 88.9671 60.7607 89.4502 61.3486L89.5254 60.6035H91.0225V67.7744C91.0225 68.7451 90.7194 69.5107 90.1133 70.0713C89.5117 70.6318 88.6982 70.9121 87.6729 70.9121C87.1305 70.9121 86.5996 70.7982 86.0801 70.5703C85.5651 70.347 85.1732 70.0531 84.9043 69.6885L85.6904 68.6904C86.2008 69.2965 86.8298 69.5996 87.5771 69.5996C88.1286 69.5996 88.5638 69.4492 88.8828 69.1484C89.2018 68.8522 89.3613 68.4147 89.3613 67.8359V67.3369C88.8828 67.8701 88.2448 68.1367 87.4473 68.1367C86.5814 68.1367 85.8727 67.7926 85.3213 67.1045C84.7744 66.4163 84.501 65.4639 84.501 64.2471ZM86.1553 64.3906C86.1553 65.1335 86.3057 65.7191 86.6064 66.1475C86.9118 66.5713 87.3333 66.7832 87.8711 66.7832C88.541 66.7832 89.0378 66.4961 89.3613 65.9219V62.668C89.0469 62.1074 88.5547 61.8271 87.8848 61.8271C87.3379 61.8271 86.9118 62.0436 86.6064 62.4766C86.3057 62.9095 86.1553 63.5475 86.1553 64.3906ZM97.8584 61.4102C98.4007 60.7812 99.0866 60.4668 99.916 60.4668C101.493 60.4668 102.293 61.3669 102.315 63.167V68H100.654V63.2285C100.654 62.7181 100.543 62.3581 100.319 62.1484C100.101 61.9342 99.777 61.8271 99.3486 61.8271C98.6833 61.8271 98.1865 62.1234 97.8584 62.7158V68H96.1973V57.5H97.8584V61.4102ZM108.481 67.2754C107.994 67.8496 107.301 68.1367 106.403 68.1367C105.601 68.1367 104.993 67.902 104.578 67.4326C104.168 66.9632 103.963 66.2842 103.963 65.3955V60.6035H105.624V65.375C105.624 66.3138 106.014 66.7832 106.793 66.7832C107.6 66.7832 108.144 66.4938 108.427 65.915V60.6035H110.088V68H108.522L108.481 67.2754ZM118.271 64.377C118.271 65.5254 118.013 66.4391 117.498 67.1182C116.988 67.7972 116.284 68.1367 115.386 68.1367C114.52 68.1367 113.845 67.8245 113.362 67.2002L113.28 68H111.776V57.5H113.438V61.3145C113.916 60.7493 114.561 60.4668 115.372 60.4668C116.274 60.4668 116.983 60.8018 117.498 61.4717C118.013 62.1416 118.271 63.0781 118.271 64.2812V64.377ZM116.609 64.2334C116.609 63.4313 116.468 62.8298 116.186 62.4287C115.903 62.0277 115.493 61.8271 114.955 61.8271C114.235 61.8271 113.729 62.1416 113.438 62.7705V65.8193C113.734 66.4619 114.244 66.7832 114.969 66.7832C115.488 66.7832 115.889 66.5895 116.172 66.2021C116.454 65.8148 116.6 65.2292 116.609 64.4453V64.2334Z" fill="white"/>
</svg>
