<svg width="208" height="101" viewBox="0 0 208 101" fill="none" xmlns="http://www.w3.org/2000/svg">
<path d="M20.082 15.8125L31.5078 51.4258L42.8984 15.8125H59.1406V67H46.7656V55.0469L47.9609 30.5781L35.5859 67H27.4297L15.0195 30.543L16.2148 55.0469V67H3.875V15.8125H20.082ZM133.496 47.9453L128.434 53.5V67H116.094V15.8125H128.434V38.3828L132.723 31.8789L143.762 15.8125H159.02L141.723 38.4531L159.02 67H144.395L133.496 47.9453Z" fill="white"/>
<path d="M96.0898 57.4375H79.1797L76.2266 67H63.043L81.8164 15.8125H93.418L112.332 67H99.0781L96.0898 57.4375ZM82.1328 47.9102H93.1367L87.6172 30.1562L82.1328 47.9102ZM205.496 42.4609C205.496 47.4531 204.57 51.8711 202.719 55.7148C200.867 59.5586 198.23 62.5234 194.809 64.6094C191.41 66.6719 187.531 67.7031 183.172 67.7031C178.812 67.7031 174.945 66.707 171.57 64.7148C168.195 62.6992 165.559 59.8281 163.66 56.1016C161.785 52.375 160.801 48.0977 160.707 43.2695V40.3867C160.707 35.3711 161.621 30.9531 163.449 27.1328C165.301 23.2891 167.938 20.3242 171.359 18.2383C174.805 16.1523 178.719 15.1094 183.102 15.1094C187.438 15.1094 191.305 16.1406 194.703 18.2031C198.102 20.2656 200.738 23.207 202.613 27.0273C204.512 30.8242 205.473 35.1836 205.496 40.1055V42.4609ZM192.945 40.3164C192.945 35.2305 192.09 31.375 190.379 28.75C188.691 26.1016 186.266 24.7773 183.102 24.7773C176.914 24.7773 173.645 29.418 173.293 38.6992L173.258 42.4609C173.258 47.4766 174.09 51.332 175.754 54.0273C177.418 56.7227 179.891 58.0703 183.172 58.0703C186.289 58.0703 188.691 56.7461 190.379 54.0977C192.066 51.4492 192.922 47.6406 192.945 42.6719V40.3164Z" fill="#F1AC2E"/>
<path d="M22.8477 91.2383H31.8848V94H19.3887V74.0938H22.8477V91.2383ZM40.7305 94.2734C38.625 94.2734 36.916 93.6126 35.6035 92.291C34.3001 90.9603 33.6484 89.1921 33.6484 86.9863V86.5762C33.6484 85.0996 33.931 83.7826 34.4961 82.625C35.0703 81.4583 35.8724 80.5514 36.9023 79.9043C37.9323 79.2572 39.0807 78.9336 40.3477 78.9336C42.362 78.9336 43.916 79.5762 45.0098 80.8613C46.1126 82.1465 46.6641 83.9648 46.6641 86.3164V87.6562H36.998C37.0983 88.8776 37.5039 89.8438 38.2148 90.5547C38.9349 91.2656 39.8372 91.6211 40.9219 91.6211C42.444 91.6211 43.6836 91.0059 44.6406 89.7754L46.4316 91.4844C45.8392 92.3685 45.0462 93.0566 44.0527 93.5488C43.0684 94.0319 41.9609 94.2734 40.7305 94.2734ZM40.334 81.5996C39.4225 81.5996 38.6842 81.9186 38.1191 82.5566C37.5632 83.1947 37.2077 84.0833 37.0527 85.2227H43.3828V84.9766C43.3099 83.8646 43.0137 83.026 42.4941 82.4609C41.9746 81.8867 41.2546 81.5996 40.334 81.5996ZM58.0938 94C57.9479 93.7174 57.8203 93.2572 57.7109 92.6191C56.6536 93.722 55.3594 94.2734 53.8281 94.2734C52.3424 94.2734 51.1302 93.8496 50.1914 93.002C49.2526 92.1543 48.7832 91.1061 48.7832 89.8574C48.7832 88.2806 49.3665 87.0729 50.5332 86.2344C51.709 85.3867 53.3861 84.9629 55.5645 84.9629H57.6016V83.9922C57.6016 83.2266 57.3874 82.6159 56.959 82.1602C56.5306 81.6953 55.8789 81.4629 55.0039 81.4629C54.2474 81.4629 53.6276 81.6543 53.1445 82.0371C52.6615 82.4108 52.4199 82.8893 52.4199 83.4727H49.0977C49.0977 82.6615 49.3665 81.9049 49.9043 81.2031C50.4421 80.4922 51.1712 79.9362 52.0918 79.5352C53.0215 79.1341 54.056 78.9336 55.1953 78.9336C56.9271 78.9336 58.3079 79.3711 59.3379 80.2461C60.3678 81.112 60.8965 82.3333 60.9238 83.9102V90.582C60.9238 91.9128 61.1107 92.9746 61.4844 93.7676V94H58.0938ZM54.4434 91.6074C55.0996 91.6074 55.7148 91.4479 56.2891 91.1289C56.8724 90.8099 57.3099 90.3815 57.6016 89.8438V87.0547H55.8105C54.5801 87.0547 53.6549 87.2689 53.0352 87.6973C52.4154 88.1257 52.1055 88.7318 52.1055 89.5156C52.1055 90.1536 52.3151 90.6641 52.7344 91.0469C53.1628 91.4206 53.7324 91.6074 54.4434 91.6074ZM72.1484 82.2422C71.7109 82.1693 71.2598 82.1328 70.7949 82.1328C69.2728 82.1328 68.2474 82.7161 67.7188 83.8828V94H64.3965V79.207H67.5684L67.6504 80.8613C68.4525 79.5762 69.5645 78.9336 70.9863 78.9336C71.4603 78.9336 71.8522 78.9974 72.1621 79.125L72.1484 82.2422ZM77.3301 79.207L77.4258 80.916C78.5195 79.5944 79.9551 78.9336 81.7324 78.9336C84.8132 78.9336 86.3809 80.6973 86.4355 84.2246V94H83.1133V84.416C83.1133 83.4772 82.9082 82.7845 82.498 82.3379C82.097 81.8822 81.4362 81.6543 80.5156 81.6543C79.1758 81.6543 78.1777 82.2604 77.5215 83.4727V94H74.1992V79.207H77.3301ZM93.3672 94H90.0449V79.207H93.3672V94ZM89.8398 75.3652C89.8398 74.8548 89.9993 74.431 90.3184 74.0938C90.6465 73.7565 91.1113 73.5879 91.7129 73.5879C92.3145 73.5879 92.7793 73.7565 93.1074 74.0938C93.4355 74.431 93.5996 74.8548 93.5996 75.3652C93.5996 75.8665 93.4355 76.2858 93.1074 76.623C92.7793 76.9512 92.3145 77.1152 91.7129 77.1152C91.1113 77.1152 90.6465 76.9512 90.3184 76.623C89.9993 76.2858 89.8398 75.8665 89.8398 75.3652ZM100.08 79.207L100.176 80.916C101.27 79.5944 102.705 78.9336 104.482 78.9336C107.563 78.9336 109.131 80.6973 109.186 84.2246V94H105.863V84.416C105.863 83.4772 105.658 82.7845 105.248 82.3379C104.847 81.8822 104.186 81.6543 103.266 81.6543C101.926 81.6543 100.928 82.2604 100.271 83.4727V94H96.9492V79.207H100.08ZM112.002 86.4941C112.002 84.1973 112.54 82.3652 113.615 80.998C114.7 79.6217 116.135 78.9336 117.922 78.9336C119.608 78.9336 120.934 79.5215 121.9 80.6973L122.051 79.207H125.045V93.5488C125.045 95.4902 124.439 97.0215 123.227 98.1426C122.023 99.2637 120.396 99.8242 118.346 99.8242C117.261 99.8242 116.199 99.5964 115.16 99.1406C114.13 98.694 113.346 98.1061 112.809 97.377L114.381 95.3809C115.402 96.5931 116.66 97.1992 118.154 97.1992C119.257 97.1992 120.128 96.8984 120.766 96.2969C121.404 95.7044 121.723 94.8294 121.723 93.6719V92.6738C120.766 93.7402 119.49 94.2734 117.895 94.2734C116.163 94.2734 114.745 93.5853 113.643 92.209C112.549 90.8327 112.002 88.9277 112.002 86.4941ZM115.311 86.7812C115.311 88.2669 115.611 89.4382 116.213 90.2949C116.824 91.1426 117.667 91.5664 118.742 91.5664C120.082 91.5664 121.076 90.9922 121.723 89.8438V83.3359C121.094 82.2148 120.109 81.6543 118.77 81.6543C117.676 81.6543 116.824 82.0872 116.213 82.9531C115.611 83.819 115.311 85.0951 115.311 86.7812ZM138.717 80.8203C139.801 79.5625 141.173 78.9336 142.832 78.9336C145.986 78.9336 147.585 80.7337 147.631 84.334V94H144.309V84.457C144.309 83.4362 144.085 82.7161 143.639 82.2969C143.201 81.8685 142.554 81.6543 141.697 81.6543C140.367 81.6543 139.373 82.2467 138.717 83.4316V94H135.395V73H138.717V80.8203ZM159.963 92.5508C158.988 93.6992 157.602 94.2734 155.807 94.2734C154.202 94.2734 152.986 93.804 152.156 92.8652C151.336 91.9264 150.926 90.5684 150.926 88.791V79.207H154.248V88.75C154.248 90.6276 155.027 91.5664 156.586 91.5664C158.199 91.5664 159.288 90.9876 159.854 89.8301V79.207H163.176V94H160.045L159.963 92.5508ZM179.541 86.7539C179.541 89.0508 179.026 90.8783 177.996 92.2363C176.975 93.5944 175.567 94.2734 173.771 94.2734C172.04 94.2734 170.691 93.6491 169.725 92.4004L169.561 94H166.553V73H169.875V80.6289C170.832 79.4987 172.122 78.9336 173.744 78.9336C175.549 78.9336 176.966 79.6035 177.996 80.9434C179.026 82.2832 179.541 84.1562 179.541 86.5625V86.7539ZM176.219 86.4668C176.219 84.8626 175.936 83.6595 175.371 82.8574C174.806 82.0553 173.986 81.6543 172.91 81.6543C171.47 81.6543 170.458 82.2832 169.875 83.541V89.6387C170.467 90.9238 171.488 91.5664 172.938 91.5664C173.977 91.5664 174.779 91.179 175.344 90.4043C175.909 89.6296 176.201 88.4583 176.219 86.8906V86.4668Z" fill="white"/>
</svg>
