<svg width="3604" height="1044" viewBox="0 0 3604 1044" fill="none" xmlns="http://www.w3.org/2000/svg">
<rect width="3604" height="1044" fill="white"/>
<path d="M1354.51 676.221V652.204H1348.55V681H1367.1V676.221H1354.51ZM1387.8 668.526V663.868H1376.42V657.024H1389.74V652.204H1370.46V681H1389.78V676.221H1376.42V668.526H1387.8ZM1409.49 675.087L1411.47 681H1417.79L1407.01 652.204H1401.51L1390.77 681H1397.09L1399.08 675.087H1409.49ZM1400.7 670.267L1404.26 659.494L1407.87 670.267H1400.7ZM1441.76 660.912C1441.76 659.494 1441.52 658.239 1441.03 657.145C1439.53 653.784 1436.01 652.204 1431.15 652.204H1420.42V681H1426.37V670.47H1431.11L1436.49 681H1442.85V680.716L1436.62 668.971C1439.65 667.554 1441.76 665.367 1441.76 660.912ZM1435.85 661.398C1435.85 664.233 1434.02 665.65 1431.15 665.65H1426.37V657.024H1431.15C1434.14 657.024 1435.85 658.522 1435.85 661.398ZM1469.69 681V652.204H1463.78V671.199L1452.2 652.204H1446.24V681H1452.2V662.046L1463.74 681H1469.69ZM1481.16 681V652.204H1475.24V681H1481.16ZM1510.07 681V652.204H1504.16V671.199L1492.58 652.204H1486.62V681H1492.58V662.046L1504.12 681H1510.07ZM1527.33 676.626C1522.35 676.626 1520.56 672.819 1520.56 667.473V665.731C1520.56 660.588 1522.06 656.578 1526.76 656.578C1530.16 656.578 1531.78 658.401 1532.23 661.357H1538.02C1537.29 655.201 1533.52 651.799 1526.6 651.799C1524.78 651.799 1523.12 652.123 1521.62 652.731C1517 654.675 1514.53 659.211 1514.53 665.772V667.473C1514.53 669.7 1514.81 671.685 1515.42 673.386C1517.04 678.084 1520.81 681.405 1527 681.405C1531.99 681.405 1535.79 679.947 1538.02 677.355V665.853H1526.68V670.227H1532.07V675.208C1531.22 676.261 1529.27 676.626 1527.33 676.626ZM1576.32 681V652.204H1570.41V663.868H1558.82V652.204H1552.87V681H1558.82V668.647H1570.41V681H1576.32ZM1592.24 676.626C1588.84 676.626 1587.14 674.763 1587.14 671.199V652.204H1581.22V671.199C1581.22 672.859 1581.51 674.358 1582.03 675.613C1583.61 679.258 1587.06 681.405 1592.24 681.405C1593.82 681.405 1595.32 681.203 1596.65 680.757C1600.58 679.501 1603.3 676.383 1603.3 671.199V652.204H1597.34V671.199C1597.34 674.763 1595.68 676.626 1592.24 676.626ZM1629.55 672.535C1629.55 669.052 1627.6 666.906 1624.77 666.177C1627.12 665.286 1628.9 663.261 1628.9 660.102C1628.9 658.765 1628.66 657.591 1628.17 656.619C1626.59 653.46 1622.99 652.204 1618.21 652.204H1608.12V681H1619.14C1625.34 681 1629.55 678.489 1629.55 672.535ZM1623.59 672.495C1623.59 675.047 1621.77 676.221 1619.14 676.221H1614.08V668.445H1619.38C1622.18 668.445 1623.59 669.741 1623.59 672.495ZM1622.95 660.709C1622.95 663.261 1621.12 664.233 1618.45 664.273H1614.08V657.024H1618.21C1621.16 657.024 1622.95 657.874 1622.95 660.709Z" fill="#001D0C"/>
<rect x="608" y="332" width="138" height="138" fill="#001A0B"/>
<rect x="1348" y="320" width="138" height="138" fill="#001A0B"/>
<rect x="2241" y="316" width="138" height="138" fill="#001A0B"/>
<rect x="751" y="367" width="138" height="138" fill="#EFA932"/>
<rect x="1491" y="355" width="138" height="138" fill="#EFA932"/>
<rect x="2384" y="351" width="138" height="138" fill="#EFA932"/>
<rect x="751" y="509" width="138" height="138" fill="#001A0B"/>
<rect x="1491" y="497" width="138" height="138" fill="#001A0B"/>
<rect x="2384" y="493" width="138" height="138" fill="#001A0B"/>
<rect x="608" y="474" width="138" height="138" fill="#EFA932"/>
<rect x="1348" y="462" width="138" height="138" fill="#EFA932"/>
<rect x="2241" y="458" width="138" height="138" fill="#EFA932"/>
<path d="M659.239 366.721H642.151V430H655.234V412.734L653.899 382.919L670.987 430H679.887L696.975 382.83L695.729 412.734V430H708.812V366.721H691.635L675.526 412.645L659.239 366.721Z" fill="white"/>
<path d="M1399.24 354.721H1382.15V418H1395.23V400.734L1393.9 370.919L1410.99 418H1419.89L1436.98 370.83L1435.73 400.734V418H1448.81V354.721H1431.64L1415.53 400.645L1399.24 354.721Z" fill="white"/>
<path d="M2292.24 350.721H2275.15V414H2288.23V396.734L2286.9 366.919L2303.99 414H2312.89L2329.98 366.83L2328.73 396.734V414H2341.81V350.721H2324.64L2308.53 396.645L2292.24 350.721Z" fill="white"/>
<path d="M814.998 442.635L831.285 468H846.771L823.631 432.845L846.148 404.721H830.128C822.741 414.244 815.176 423.5 808.234 433.379V404.721H795.151V468H808.234V449.933L814.998 442.635Z" fill="black"/>
<path d="M1555 430.635L1571.28 456H1586.77L1563.63 420.845L1586.15 392.721H1570.13C1562.74 402.244 1555.18 411.5 1548.23 421.379V392.721H1535.15V456H1548.23V437.933L1555 430.635Z" fill="black"/>
<path d="M2448 426.635L2464.28 452H2479.77L2456.63 416.845L2479.15 388.721H2463.13C2455.74 398.244 2448.18 407.5 2441.23 417.379V388.721H2428.15V452H2441.23V433.933L2448 426.635Z" fill="black"/>
<path d="M818.469 613.89C812.12 613.89 806.395 612.525 801.292 609.796C796.189 607.007 792.184 603.18 789.277 598.315C786.37 593.39 784.916 587.902 784.916 581.85C784.916 575.798 786.37 570.339 789.277 565.474C792.184 560.549 796.189 556.722 801.292 553.993C806.395 551.204 812.12 549.81 818.469 549.81C824.818 549.81 830.543 551.204 835.646 553.993C840.749 556.722 844.754 560.52 847.661 565.385C850.568 570.25 852.022 575.739 852.022 581.85C852.022 587.961 850.568 593.45 847.661 598.315C844.754 603.18 840.749 607.007 835.646 609.796C830.543 612.525 824.818 613.89 818.469 613.89ZM818.469 603.744C822.622 603.744 826.36 602.824 829.683 600.985C833.006 599.086 835.616 596.476 837.515 593.153C839.414 589.771 840.363 586.003 840.363 581.85C840.363 577.697 839.414 573.959 837.515 570.636C835.616 567.254 833.006 564.643 829.683 562.804C826.36 560.905 822.622 559.956 818.469 559.956C814.316 559.956 810.578 560.905 807.255 562.804C803.932 564.643 801.322 567.254 799.423 570.636C797.524 573.959 796.575 577.697 796.575 581.85C796.575 586.003 797.524 589.771 799.423 593.153C801.322 596.476 803.932 599.086 807.255 600.985C810.578 602.824 814.316 603.744 818.469 603.744Z" fill="white"/>
<path d="M1558.47 601.89C1552.12 601.89 1546.39 600.525 1541.29 597.796C1536.19 595.007 1532.18 591.18 1529.28 586.315C1526.37 581.39 1524.92 575.902 1524.92 569.85C1524.92 563.798 1526.37 558.339 1529.28 553.474C1532.18 548.549 1536.19 544.722 1541.29 541.993C1546.39 539.204 1552.12 537.81 1558.47 537.81C1564.82 537.81 1570.54 539.204 1575.65 541.993C1580.75 544.722 1584.75 548.52 1587.66 553.385C1590.57 558.25 1592.02 563.739 1592.02 569.85C1592.02 575.961 1590.57 581.45 1587.66 586.315C1584.75 591.18 1580.75 595.007 1575.65 597.796C1570.54 600.525 1564.82 601.89 1558.47 601.89ZM1558.47 591.744C1562.62 591.744 1566.36 590.824 1569.68 588.985C1573.01 587.086 1575.62 584.476 1577.52 581.153C1579.41 577.771 1580.36 574.003 1580.36 569.85C1580.36 565.697 1579.41 561.959 1577.52 558.636C1575.62 555.254 1573.01 552.643 1569.68 550.804C1566.36 548.905 1562.62 547.956 1558.47 547.956C1554.32 547.956 1550.58 548.905 1547.26 550.804C1543.93 552.643 1541.32 555.254 1539.42 558.636C1537.52 561.959 1536.58 565.697 1536.58 569.85C1536.58 574.003 1537.52 577.771 1539.42 581.153C1541.32 584.476 1543.93 587.086 1547.26 588.985C1550.58 590.824 1554.32 591.744 1558.47 591.744Z" fill="white"/>
<path d="M2451.47 597.89C2445.12 597.89 2439.39 596.525 2434.29 593.796C2429.19 591.007 2425.18 587.18 2422.28 582.315C2419.37 577.39 2417.92 571.902 2417.92 565.85C2417.92 559.798 2419.37 554.339 2422.28 549.474C2425.18 544.549 2429.19 540.722 2434.29 537.993C2439.39 535.204 2445.12 533.81 2451.47 533.81C2457.82 533.81 2463.54 535.204 2468.65 537.993C2473.75 540.722 2477.75 544.52 2480.66 549.385C2483.57 554.25 2485.02 559.739 2485.02 565.85C2485.02 571.961 2483.57 577.45 2480.66 582.315C2477.75 587.18 2473.75 591.007 2468.65 593.796C2463.54 596.525 2457.82 597.89 2451.47 597.89ZM2451.47 587.744C2455.62 587.744 2459.36 586.824 2462.68 584.985C2466.01 583.086 2468.62 580.476 2470.52 577.153C2472.41 573.771 2473.36 570.003 2473.36 565.85C2473.36 561.697 2472.41 557.959 2470.52 554.636C2468.62 551.254 2466.01 548.643 2462.68 546.804C2459.36 544.905 2455.62 543.956 2451.47 543.956C2447.32 543.956 2443.58 544.905 2440.26 546.804C2436.93 548.643 2434.32 551.254 2432.42 554.636C2430.52 557.959 2429.58 561.697 2429.58 565.85C2429.58 570.003 2430.52 573.771 2432.42 577.153C2434.32 580.476 2436.93 583.086 2440.26 584.985C2443.58 586.824 2447.32 587.744 2451.47 587.744Z" fill="white"/>
<path d="M686.929 563.006L691.29 576H705.174L681.5 512.721H669.396L645.811 576H659.695L664.056 563.006H686.929ZM667.616 552.415L675.448 528.741L683.369 552.415H667.616Z" fill="black"/>
<path d="M1426.93 551.006L1431.29 564H1445.17L1421.5 500.721H1409.4L1385.81 564H1399.7L1404.06 551.006H1426.93ZM1407.62 540.415L1415.45 516.741L1423.37 540.415H1407.62Z" fill="black"/>
<path d="M2319.93 547.006L2324.29 560H2338.17L2314.5 496.721H2302.4L2278.81 560H2292.7L2297.06 547.006H2319.93ZM2300.62 536.415L2308.45 512.741L2316.37 536.415H2300.62Z" fill="black"/>
<path d="M2598.63 386.263H2563.39V505H2590.44V472.602L2587.61 416.657L2622.84 505H2641.21L2676.62 416.49L2673.94 472.602V505H2701V386.263H2665.59L2632.36 472.435L2598.63 386.263ZM2904.55 457.405L2938.28 505H2970.18L2922.42 439.035L2968.84 386.263H2935.78C2920.75 404.132 2905.05 421.5 2890.69 440.037V386.263H2863.63V505H2890.69V471.099L2904.55 457.405Z" fill="#001D0C"/>
<path d="M2806.15 480.618L2815.17 505H2843.89L2794.96 386.263H2770.08L2721.31 505H2750.04L2759.06 480.618H2806.15ZM2766.4 460.745L2782.44 416.323L2798.8 460.745H2766.4ZM3098.58 448.387V443.043C3098.58 424.673 3092.56 410.144 3083.05 400.291C3074.19 391.273 3060.83 384.593 3042.97 384.593C3034.78 384.593 3027.43 386.096 3020.59 388.768C2999.88 397.118 2987.35 415.822 2987.35 443.043V448.387C2987.35 466.59 2993.53 481.453 3003.05 491.139C3011.9 500.157 3025.26 506.67 3043.13 506.67C3051.32 506.67 3058.83 505.334 3065.68 502.662C3086.55 494.312 3098.58 475.775 3098.58 448.387ZM3043.13 486.63C3038.62 486.63 3034.62 485.795 3031.11 484.125C3019.25 478.447 3014.58 465.087 3014.58 448.387V442.876C3014.58 421.834 3021.92 404.8 3042.97 404.8C3064.01 404.8 3071.36 421.834 3071.36 442.876V448.387C3071.36 469.262 3064.01 486.63 3043.13 486.63Z" fill="#EFA932"/>
<path d="M2577.86 591.976V551.652H2566.84V600H2601.11V591.976H2577.86ZM2641.83 579.056V571.236H2620.82V559.744H2645.44V551.652H2609.81V600H2645.51V591.976H2620.82V579.056H2641.83ZM2687.07 590.072L2690.74 600H2702.44L2682.52 551.652H2672.38L2652.53 600H2664.22L2667.9 590.072H2687.07ZM2670.89 581.98L2677.42 563.892L2684.08 581.98H2670.89ZM2749.92 566.272C2749.92 563.892 2749.44 561.784 2748.56 559.948C2745.77 554.304 2739.31 551.652 2730.27 551.652H2710.48V600H2721.49V582.32H2730.2L2740.19 600H2751.89V599.524L2740.4 579.804C2746.04 577.424 2749.92 573.752 2749.92 566.272ZM2738.97 567.088C2738.97 571.848 2735.57 574.228 2730.27 574.228H2721.49V559.744H2730.27C2735.77 559.744 2738.97 562.26 2738.97 567.088ZM2803.27 600V551.652H2792.32V583.544L2770.97 551.652H2759.95V600H2770.97V568.176L2792.25 600H2803.27ZM2824.36 600V551.652H2813.41V600H2824.36ZM2877.77 600V551.652H2866.83V583.544L2845.47 551.652H2834.46V600H2845.47V568.176L2866.76 600H2877.77ZM2910.63 592.656C2901.45 592.656 2898.12 586.264 2898.12 577.288V574.364C2898.12 565.728 2900.9 558.996 2909.54 558.996C2915.86 558.996 2918.86 562.056 2919.67 567.02H2930.35C2929.06 556.684 2922.12 550.972 2909.27 550.972C2905.87 550.972 2902.81 551.516 2900.09 552.536C2891.59 555.8 2886.96 563.416 2886.96 574.432V577.288C2886.96 581.028 2887.51 584.36 2888.6 587.216C2891.59 595.104 2898.52 600.68 2910.02 600.68C2919.2 600.68 2926.2 598.232 2930.35 593.88V574.568H2909.4V581.912H2919.33V590.276C2917.77 592.044 2914.23 592.656 2910.63 592.656ZM2994.58 600V551.652H2983.63V571.236H2962.28V551.652H2951.27V600H2962.28V579.26H2983.63V600H2994.58ZM3024.72 592.656C3018.46 592.656 3015.33 589.528 3015.33 583.544V551.652H3004.38V583.544C3004.38 586.332 3004.86 588.848 3005.88 590.956C3008.74 597.076 3015.13 600.68 3024.72 600.68C3027.64 600.68 3030.36 600.34 3032.88 599.592C3040.15 597.484 3045.18 592.248 3045.18 583.544V551.652H3034.17V583.544C3034.17 589.528 3031.04 592.656 3024.72 592.656ZM3094.7 585.788C3094.7 579.94 3091.1 576.336 3085.86 575.112C3090.21 573.616 3093.55 570.216 3093.55 564.912C3093.55 562.668 3093.07 560.696 3092.19 559.064C3089.33 553.76 3082.6 551.652 3073.76 551.652H3055.13V600H3075.46C3086.88 600 3094.7 595.784 3094.7 585.788ZM3083.69 585.72C3083.69 590.004 3080.29 591.976 3075.46 591.976H3066.14V578.92H3075.93C3081.1 578.92 3083.69 581.096 3083.69 585.72ZM3082.53 565.932C3082.53 570.216 3079.2 571.848 3074.23 571.916H3066.14V559.744H3073.76C3079.27 559.744 3082.53 561.172 3082.53 565.932Z" fill="#001D0C"/>
</svg>
