<svg width="1440" height="1160" viewBox="0 0 1440 1160" fill="none" xmlns="http://www.w3.org/2000/svg">
<mask id="mask0" mask-type="alpha" maskUnits="userSpaceOnUse" x="0" y="0" width="1441" height="1160">
<path d="M0 0C0 0 332.5 78 720 78C1107.5 78 1440 0 1440 0L1440 1159.5C1440 1159.5 1115 1159.5 720 1159.5C325.001 1159.5 0.00044166 1159.5 0.00044166 1159.5L0 0Z" fill="#F8D597"/>
</mask>
<g mask="url(#mask0)">
<path d="M0 0C0 0 332.5 78 720 78C1107.5 78 1440 0 1440 0L1440 1159.5C1440 1159.5 1115 1159.5 720 1159.5C325.001 1159.5 0.00044166 1159.5 0.00044166 1159.5L0 0Z" fill="#F8D597"/>
<path d="M688.773 196.836L690.742 187.203H692.948L689.995 200H687.868L685.434 190.657L682.946 200H680.811L677.857 187.203H680.063L682.05 196.818L684.493 187.203H686.356L688.773 196.836ZM702.054 194.287H696.798V198.225H702.941V200H694.574V187.203H702.88V188.996H696.798V192.529H702.054V194.287ZM719.447 193.936C719.447 195.189 719.23 196.291 718.797 197.24C718.363 198.184 717.742 198.91 716.934 199.42C716.131 199.924 715.205 200.176 714.156 200.176C713.119 200.176 712.193 199.924 711.379 199.42C710.57 198.91 709.943 198.187 709.498 197.249C709.059 196.312 708.836 195.23 708.83 194.006V193.285C708.83 192.037 709.05 190.936 709.489 189.98C709.935 189.025 710.559 188.296 711.361 187.792C712.17 187.282 713.096 187.027 714.139 187.027C715.182 187.027 716.104 187.279 716.907 187.783C717.716 188.281 718.34 189.002 718.779 189.945C719.219 190.883 719.441 191.976 719.447 193.224V193.936ZM717.224 193.268C717.224 191.85 716.954 190.763 716.415 190.007C715.882 189.251 715.123 188.873 714.139 188.873C713.178 188.873 712.425 189.251 711.88 190.007C711.341 190.757 711.065 191.82 711.054 193.197V193.936C711.054 195.342 711.326 196.429 711.871 197.196C712.422 197.964 713.184 198.348 714.156 198.348C715.141 198.348 715.896 197.973 716.424 197.223C716.957 196.473 717.224 195.377 717.224 193.936V193.268ZM729.036 194.577H723.886V200H721.662V187.203H729.792V188.996H723.886V192.802H729.036V194.577ZM738.933 194.577H733.782V200H731.559V187.203H739.688V188.996H733.782V192.802H738.933V194.577ZM748.935 194.287H743.679V198.225H749.822V200H741.455V187.203H749.761V188.996H743.679V192.529H748.935V194.287ZM756.335 195.069H753.856V200H751.633V187.203H756.133C757.609 187.203 758.749 187.534 759.552 188.196C760.354 188.858 760.756 189.816 760.756 191.07C760.756 191.926 760.548 192.644 760.132 193.224C759.722 193.798 759.147 194.24 758.409 194.551L761.283 199.886V200H758.901L756.335 195.069ZM753.856 193.285H756.142C756.892 193.285 757.478 193.098 757.899 192.723C758.321 192.342 758.532 191.823 758.532 191.167C758.532 190.481 758.336 189.951 757.943 189.576C757.557 189.201 756.977 189.008 756.203 188.996H753.856V193.285Z" fill="#125730"/>
<path d="M386.727 372H369.671V368.616L377.72 360.037C378.825 358.829 379.64 357.776 380.164 356.875C380.7 355.975 380.967 355.121 380.967 354.312C380.967 353.207 380.688 352.341 380.13 351.714C379.572 351.076 378.774 350.757 377.737 350.757C376.621 350.757 375.738 351.145 375.088 351.919C374.45 352.683 374.131 353.691 374.131 354.944H369.175C369.175 353.429 369.534 352.045 370.252 350.792C370.981 349.538 372.007 348.558 373.328 347.852C374.65 347.134 376.148 346.775 377.823 346.775C380.386 346.775 382.374 347.391 383.787 348.621C385.211 349.852 385.923 351.589 385.923 353.833C385.923 355.064 385.604 356.317 384.966 357.593C384.328 358.869 383.235 360.356 381.685 362.054L376.028 368.018H386.727V372ZM391.255 378.238L388.675 376.888L389.29 375.777C390.053 374.387 390.446 373.003 390.469 371.624V367.796H394.639L394.622 371.214C394.611 372.479 394.292 373.755 393.665 375.042C393.038 376.329 392.235 377.395 391.255 378.238ZM415.062 361.712C415.062 365.153 414.349 367.785 412.925 369.607C411.501 371.43 409.416 372.342 406.67 372.342C403.959 372.342 401.885 371.447 400.45 369.659C399.014 367.87 398.279 365.306 398.245 361.968V357.388C398.245 353.913 398.963 351.276 400.398 349.476C401.845 347.675 403.925 346.775 406.636 346.775C409.348 346.775 411.421 347.67 412.857 349.458C414.292 351.236 415.027 353.794 415.062 357.132V361.712ZM410.123 356.688C410.123 354.625 409.838 353.127 409.268 352.193C408.71 351.247 407.833 350.774 406.636 350.774C405.474 350.774 404.614 351.224 404.056 352.125C403.509 353.013 403.218 354.409 403.184 356.312V362.361C403.184 364.389 403.458 365.899 404.004 366.89C404.563 367.87 405.451 368.36 406.67 368.36C407.878 368.36 408.75 367.887 409.285 366.941C409.821 365.996 410.1 364.549 410.123 362.601V356.688ZM435.159 361.712C435.159 365.153 434.447 367.785 433.023 369.607C431.599 371.43 429.514 372.342 426.768 372.342C424.056 372.342 421.983 371.447 420.547 369.659C419.112 367.87 418.377 365.306 418.343 361.968V357.388C418.343 353.913 419.061 351.276 420.496 349.476C421.943 347.675 424.022 346.775 426.734 346.775C429.445 346.775 431.519 347.67 432.955 349.458C434.39 351.236 435.125 353.794 435.159 357.132V361.712ZM430.22 356.688C430.22 354.625 429.935 353.127 429.366 352.193C428.807 351.247 427.93 350.774 426.734 350.774C425.572 350.774 424.712 351.224 424.153 352.125C423.606 353.013 423.316 354.409 423.282 356.312V362.361C423.282 364.389 423.555 365.899 424.102 366.89C424.66 367.87 425.549 368.36 426.768 368.36C427.976 368.36 428.847 367.887 429.383 366.941C429.918 365.996 430.197 364.549 430.22 362.601V356.688ZM455.257 361.712C455.257 365.153 454.545 367.785 453.121 369.607C451.696 371.43 449.611 372.342 446.866 372.342C444.154 372.342 442.081 371.447 440.645 369.659C439.209 367.87 438.475 365.306 438.44 361.968V357.388C438.44 353.913 439.158 351.276 440.594 349.476C442.041 347.675 444.12 346.775 446.832 346.775C449.543 346.775 451.617 347.67 453.052 349.458C454.488 351.236 455.223 353.794 455.257 357.132V361.712ZM450.318 356.688C450.318 354.625 450.033 353.127 449.463 352.193C448.905 351.247 448.028 350.774 446.832 350.774C445.669 350.774 444.809 351.224 444.251 352.125C443.704 353.013 443.414 354.409 443.379 356.312V362.361C443.379 364.389 443.653 365.899 444.2 366.89C444.758 367.87 445.647 368.36 446.866 368.36C448.073 368.36 448.945 367.887 449.48 366.941C450.016 365.996 450.295 364.549 450.318 362.601V356.688ZM468.775 358.072H474.944V362.532H468.775V369.505H464.075V362.532H457.889V358.072H464.075V351.39H468.775V358.072Z" fill="#125730"/>
<rect x="350.5" y="288.5" width="143" height="143" rx="71.5" stroke="#125730"/>
<path opacity="0.8" d="M387.248 454.577H382.098V460H379.874V447.203H388.004V448.996H382.098V452.802H387.248V454.577ZM397.25 454.287H391.994V458.225H398.138V460H389.771V447.203H398.076V448.996H391.994V452.529H397.25V454.287ZM407.111 457.021H402.154L401.117 460H398.806L403.64 447.203H405.635L410.478 460H408.157L407.111 457.021ZM402.778 455.228H406.487L404.633 449.919L402.778 455.228ZM420.128 448.996H416.138V460H413.932V448.996H409.977V447.203H420.128V448.996ZM431.176 447.203V455.755C431.176 457.114 430.739 458.192 429.866 458.989C428.999 459.78 427.842 460.176 426.395 460.176C424.93 460.176 423.767 459.786 422.905 459.007C422.044 458.222 421.613 457.135 421.613 455.746V447.203H423.828V455.764C423.828 456.619 424.045 457.272 424.479 457.724C424.912 458.175 425.551 458.4 426.395 458.4C428.105 458.4 428.961 457.498 428.961 455.693V447.203H431.176ZM438.26 455.069H435.781V460H433.558V447.203H438.058C439.534 447.203 440.674 447.534 441.477 448.196C442.279 448.858 442.681 449.816 442.681 451.07C442.681 451.926 442.473 452.644 442.057 453.224C441.646 453.798 441.072 454.24 440.334 454.551L443.208 459.886V460H440.826L438.26 455.069ZM435.781 453.285H438.066C438.816 453.285 439.402 453.098 439.824 452.723C440.246 452.342 440.457 451.823 440.457 451.167C440.457 450.481 440.261 449.951 439.868 449.576C439.481 449.201 438.901 449.008 438.128 448.996H435.781V453.285ZM452.27 454.287H447.014V458.225H453.157V460H444.79V447.203H453.096V448.996H447.014V452.529H452.27V454.287ZM454.968 460V447.203H458.747C459.878 447.203 460.88 447.455 461.753 447.959C462.632 448.463 463.312 449.178 463.792 450.104C464.272 451.029 464.513 452.09 464.513 453.285V453.927C464.513 455.14 464.27 456.206 463.783 457.126C463.303 458.046 462.614 458.755 461.718 459.253C460.827 459.751 459.805 460 458.65 460H454.968ZM457.191 448.996V458.225H458.642C459.808 458.225 460.701 457.861 461.322 457.135C461.949 456.402 462.269 455.354 462.28 453.988V453.276C462.28 451.888 461.979 450.827 461.375 450.095C460.771 449.362 459.896 448.996 458.747 448.996H457.191ZM393.532 479.834C393.403 481.199 392.899 482.266 392.021 483.033C391.142 483.795 389.973 484.176 388.514 484.176C387.494 484.176 386.595 483.936 385.815 483.455C385.042 482.969 384.444 482.28 384.022 481.39C383.601 480.499 383.381 479.465 383.363 478.287V477.092C383.363 475.885 383.577 474.821 384.005 473.901C384.433 472.981 385.045 472.272 385.842 471.774C386.645 471.276 387.57 471.027 388.619 471.027C390.031 471.027 391.168 471.411 392.029 472.179C392.891 472.946 393.392 474.03 393.532 475.431H391.317C391.212 474.511 390.942 473.849 390.509 473.444C390.081 473.034 389.451 472.829 388.619 472.829C387.652 472.829 386.908 473.184 386.387 473.893C385.871 474.596 385.607 475.63 385.596 476.995V478.129C385.596 479.512 385.842 480.566 386.334 481.293C386.832 482.02 387.559 482.383 388.514 482.383C389.387 482.383 390.043 482.187 390.482 481.794C390.922 481.401 391.2 480.748 391.317 479.834H393.532ZM405.74 477.936C405.74 479.189 405.523 480.291 405.09 481.24C404.656 482.184 404.035 482.91 403.227 483.42C402.424 483.924 401.498 484.176 400.449 484.176C399.412 484.176 398.486 483.924 397.672 483.42C396.863 482.91 396.236 482.187 395.791 481.249C395.352 480.312 395.129 479.23 395.123 478.006V477.285C395.123 476.037 395.343 474.936 395.782 473.98C396.228 473.025 396.852 472.296 397.654 471.792C398.463 471.282 399.389 471.027 400.432 471.027C401.475 471.027 402.397 471.279 403.2 471.783C404.009 472.281 404.633 473.002 405.072 473.945C405.512 474.883 405.734 475.976 405.74 477.224V477.936ZM403.517 477.268C403.517 475.85 403.247 474.763 402.708 474.007C402.175 473.251 401.416 472.873 400.432 472.873C399.471 472.873 398.718 473.251 398.173 474.007C397.634 474.757 397.358 475.82 397.347 477.197V477.936C397.347 479.342 397.619 480.429 398.164 481.196C398.715 481.964 399.477 482.348 400.449 482.348C401.434 482.348 402.189 481.973 402.717 481.223C403.25 480.473 403.517 479.377 403.517 477.936V477.268ZM417.315 471.203V479.755C417.315 481.114 416.879 482.192 416.006 482.989C415.139 483.78 413.981 484.176 412.534 484.176C411.069 484.176 409.906 483.786 409.045 483.007C408.184 482.222 407.753 481.135 407.753 479.746V471.203H409.968V479.764C409.968 480.619 410.185 481.272 410.618 481.724C411.052 482.175 411.69 482.4 412.534 482.4C414.245 482.4 415.101 481.498 415.101 479.693V471.203H417.315ZM424.399 479.069H421.921V484H419.697V471.203H424.197C425.674 471.203 426.813 471.534 427.616 472.196C428.419 472.858 428.82 473.816 428.82 475.07C428.82 475.926 428.612 476.644 428.196 477.224C427.786 477.798 427.212 478.24 426.474 478.551L429.348 483.886V484H426.966L424.399 479.069ZM421.921 477.285H424.206C424.956 477.285 425.542 477.098 425.964 476.723C426.386 476.342 426.597 475.823 426.597 475.167C426.597 474.481 426.4 473.951 426.008 473.576C425.621 473.201 425.041 473.008 424.268 472.996H421.921V477.285ZM437.618 480.704C437.618 480.142 437.419 479.708 437.021 479.403C436.628 479.099 435.916 478.791 434.885 478.48C433.854 478.17 433.033 477.824 432.424 477.443C431.258 476.711 430.675 475.756 430.675 474.578C430.675 473.547 431.094 472.697 431.932 472.029C432.775 471.361 433.868 471.027 435.21 471.027C436.101 471.027 436.895 471.191 437.592 471.52C438.289 471.848 438.837 472.316 439.235 472.926C439.634 473.529 439.833 474.2 439.833 474.938H437.618C437.618 474.271 437.407 473.749 436.985 473.374C436.569 472.993 435.972 472.803 435.192 472.803C434.466 472.803 433.9 472.958 433.496 473.269C433.098 473.579 432.898 474.013 432.898 474.569C432.898 475.038 433.115 475.431 433.549 475.747C433.982 476.058 434.697 476.362 435.693 476.661C436.689 476.954 437.489 477.291 438.093 477.672C438.696 478.047 439.139 478.48 439.42 478.973C439.701 479.459 439.842 480.03 439.842 480.687C439.842 481.753 439.432 482.603 438.611 483.235C437.797 483.862 436.689 484.176 435.289 484.176C434.363 484.176 433.511 484.006 432.731 483.666C431.958 483.32 431.354 482.846 430.921 482.242C430.493 481.639 430.279 480.936 430.279 480.133H432.503C432.503 480.859 432.743 481.422 433.224 481.82C433.704 482.219 434.393 482.418 435.289 482.418C436.062 482.418 436.643 482.263 437.029 481.952C437.422 481.636 437.618 481.22 437.618 480.704ZM449.272 478.287H444.017V482.225H450.16V484H441.793V471.203H450.099V472.996H444.017V476.529H449.272V478.287ZM458.659 480.704C458.659 480.142 458.46 479.708 458.062 479.403C457.669 479.099 456.957 478.791 455.926 478.48C454.895 478.17 454.074 477.824 453.465 477.443C452.299 476.711 451.716 475.756 451.716 474.578C451.716 473.547 452.135 472.697 452.973 472.029C453.816 471.361 454.909 471.027 456.251 471.027C457.142 471.027 457.936 471.191 458.633 471.52C459.33 471.848 459.878 472.316 460.276 472.926C460.675 473.529 460.874 474.2 460.874 474.938H458.659C458.659 474.271 458.448 473.749 458.026 473.374C457.61 472.993 457.013 472.803 456.233 472.803C455.507 472.803 454.941 472.958 454.537 473.269C454.139 473.579 453.939 474.013 453.939 474.569C453.939 475.038 454.156 475.431 454.59 475.747C455.023 476.058 455.738 476.362 456.734 476.661C457.73 476.954 458.53 477.291 459.134 477.672C459.737 478.047 460.18 478.48 460.461 478.973C460.742 479.459 460.883 480.03 460.883 480.687C460.883 481.753 460.473 482.603 459.652 483.235C458.838 483.862 457.73 484.176 456.33 484.176C455.404 484.176 454.552 484.006 453.772 483.666C452.999 483.32 452.396 482.846 451.962 482.242C451.534 481.639 451.32 480.936 451.32 480.133H453.544C453.544 480.859 453.784 481.422 454.265 481.82C454.745 482.219 455.434 482.418 456.33 482.418C457.104 482.418 457.684 482.263 458.07 481.952C458.463 481.636 458.659 481.22 458.659 480.704Z" fill="#125730"/>
<path d="M682.727 359.764L684.163 347.117H698.108V351.236H688.213L687.598 356.585C688.771 355.958 690.019 355.645 691.34 355.645C693.71 355.645 695.567 356.38 696.912 357.85C698.256 359.319 698.928 361.376 698.928 364.019C698.928 365.625 698.586 367.067 697.903 368.343C697.231 369.607 696.262 370.593 694.998 371.299C693.733 371.994 692.24 372.342 690.52 372.342C689.016 372.342 687.62 372.04 686.333 371.436C685.046 370.821 684.026 369.961 683.274 368.855C682.533 367.75 682.14 366.491 682.095 365.079H686.982C687.085 366.115 687.444 366.924 688.059 367.505C688.686 368.075 689.5 368.36 690.503 368.36C691.619 368.36 692.48 367.961 693.083 367.164C693.687 366.355 693.989 365.215 693.989 363.746C693.989 362.333 693.642 361.25 692.947 360.499C692.252 359.747 691.266 359.371 689.99 359.371C688.817 359.371 687.865 359.678 687.136 360.293L686.658 360.738L682.727 359.764ZM718.838 361.712C718.838 365.153 718.126 367.785 716.702 369.607C715.278 371.43 713.193 372.342 710.447 372.342C707.735 372.342 705.662 371.447 704.226 369.659C702.791 367.87 702.056 365.306 702.021 361.968V357.388C702.021 353.913 702.739 351.276 704.175 349.476C705.622 347.675 707.701 346.775 710.413 346.775C713.124 346.775 715.198 347.67 716.633 349.458C718.069 351.236 718.804 353.794 718.838 357.132V361.712ZM713.899 356.688C713.899 354.625 713.614 353.127 713.044 352.193C712.486 351.247 711.609 350.774 710.413 350.774C709.25 350.774 708.39 351.224 707.832 352.125C707.285 353.013 706.995 354.409 706.96 356.312V362.361C706.96 364.389 707.234 365.899 707.781 366.89C708.339 367.87 709.228 368.36 710.447 368.36C711.654 368.36 712.526 367.887 713.062 366.941C713.597 365.996 713.876 364.549 713.899 362.601V356.688ZM738.936 361.712C738.936 365.153 738.223 367.785 736.799 369.607C735.375 371.43 733.29 372.342 730.544 372.342C727.833 372.342 725.759 371.447 724.324 369.659C722.888 367.87 722.153 365.306 722.119 361.968V357.388C722.119 353.913 722.837 351.276 724.272 349.476C725.719 347.675 727.799 346.775 730.51 346.775C733.222 346.775 735.295 347.67 736.731 349.458C738.167 351.236 738.901 353.794 738.936 357.132V361.712ZM733.997 356.688C733.997 354.625 733.712 353.127 733.142 352.193C732.584 351.247 731.707 350.774 730.51 350.774C729.348 350.774 728.488 351.224 727.93 352.125C727.383 353.013 727.092 354.409 727.058 356.312V362.361C727.058 364.389 727.332 365.899 727.878 366.89C728.437 367.87 729.325 368.36 730.544 368.36C731.752 368.36 732.624 367.887 733.159 366.941C733.695 365.996 733.974 364.549 733.997 362.601V356.688ZM752.454 358.072H758.623V362.532H752.454V369.505H747.754V362.532H741.567V358.072H747.754V351.39H752.454V358.072Z" fill="#125730"/>
<rect x="648.5" y="288.5" width="143" height="143" rx="71.5" stroke="#125730"/>
<path opacity="0.8" d="M658.951 455.245V460H656.728V447.203H661.623C663.053 447.203 664.187 447.575 665.024 448.319C665.868 449.063 666.29 450.048 666.29 451.272C666.29 452.526 665.877 453.502 665.051 454.199C664.23 454.896 663.079 455.245 661.597 455.245H658.951ZM658.951 453.461H661.623C662.414 453.461 663.018 453.276 663.434 452.907C663.85 452.532 664.058 451.993 664.058 451.29C664.058 450.599 663.847 450.048 663.425 449.638C663.003 449.222 662.423 449.008 661.685 448.996H658.951V453.461ZM672.943 455.069H670.465V460H668.241V447.203H672.741C674.218 447.203 675.357 447.534 676.16 448.196C676.963 448.858 677.364 449.816 677.364 451.07C677.364 451.926 677.156 452.644 676.74 453.224C676.33 453.798 675.756 454.24 675.018 454.551L677.892 459.886V460H675.51L672.943 455.069ZM670.465 453.285H672.75C673.5 453.285 674.086 453.098 674.508 452.723C674.93 452.342 675.141 451.823 675.141 451.167C675.141 450.481 674.944 449.951 674.552 449.576C674.165 449.201 673.585 449.008 672.812 448.996H670.465V453.285ZM689.687 453.936C689.687 455.189 689.47 456.291 689.036 457.24C688.603 458.184 687.981 458.91 687.173 459.42C686.37 459.924 685.444 460.176 684.396 460.176C683.358 460.176 682.433 459.924 681.618 459.42C680.81 458.91 680.183 458.187 679.737 457.249C679.298 456.312 679.075 455.23 679.069 454.006V453.285C679.069 452.037 679.289 450.936 679.729 449.98C680.174 449.025 680.798 448.296 681.601 447.792C682.409 447.282 683.335 447.027 684.378 447.027C685.421 447.027 686.344 447.279 687.146 447.783C687.955 448.281 688.579 449.002 689.019 449.945C689.458 450.883 689.681 451.976 689.687 453.224V453.936ZM687.463 453.268C687.463 451.85 687.193 450.763 686.654 450.007C686.121 449.251 685.362 448.873 684.378 448.873C683.417 448.873 682.664 449.251 682.119 450.007C681.58 450.757 681.305 451.82 681.293 453.197V453.936C681.293 455.342 681.565 456.429 682.11 457.196C682.661 457.964 683.423 458.348 684.396 458.348C685.38 458.348 686.136 457.973 686.663 457.223C687.196 456.473 687.463 455.377 687.463 453.936V453.268ZM699.275 454.577H694.125V460H691.901V447.203H700.031V448.996H694.125V452.802H699.275V454.577ZM709.277 454.287H704.021V458.225H710.165V460H701.798V447.203H710.104V448.996H704.021V452.529H709.277V454.287ZM718.664 456.704C718.664 456.142 718.465 455.708 718.066 455.403C717.674 455.099 716.962 454.791 715.931 454.48C714.899 454.17 714.079 453.824 713.47 453.443C712.304 452.711 711.721 451.756 711.721 450.578C711.721 449.547 712.14 448.697 712.978 448.029C713.821 447.361 714.914 447.027 716.256 447.027C717.146 447.027 717.94 447.191 718.638 447.52C719.335 447.848 719.883 448.316 720.281 448.926C720.68 449.529 720.879 450.2 720.879 450.938H718.664C718.664 450.271 718.453 449.749 718.031 449.374C717.615 448.993 717.018 448.803 716.238 448.803C715.512 448.803 714.946 448.958 714.542 449.269C714.144 449.579 713.944 450.013 713.944 450.569C713.944 451.038 714.161 451.431 714.595 451.747C715.028 452.058 715.743 452.362 716.739 452.661C717.735 452.954 718.535 453.291 719.139 453.672C719.742 454.047 720.185 454.48 720.466 454.973C720.747 455.459 720.888 456.03 720.888 456.687C720.888 457.753 720.478 458.603 719.657 459.235C718.843 459.862 717.735 460.176 716.335 460.176C715.409 460.176 714.557 460.006 713.777 459.666C713.004 459.32 712.4 458.846 711.967 458.242C711.539 457.639 711.325 456.936 711.325 456.133H713.549C713.549 456.859 713.789 457.422 714.27 457.82C714.75 458.219 715.438 458.418 716.335 458.418C717.108 458.418 717.688 458.263 718.075 457.952C718.468 457.636 718.664 457.22 718.664 456.704ZM729.527 456.704C729.527 456.142 729.328 455.708 728.93 455.403C728.537 455.099 727.825 454.791 726.794 454.48C725.763 454.17 724.942 453.824 724.333 453.443C723.167 452.711 722.584 451.756 722.584 450.578C722.584 449.547 723.003 448.697 723.841 448.029C724.685 447.361 725.777 447.027 727.119 447.027C728.01 447.027 728.804 447.191 729.501 447.52C730.198 447.848 730.746 448.316 731.145 448.926C731.543 449.529 731.742 450.2 731.742 450.938H729.527C729.527 450.271 729.316 449.749 728.895 449.374C728.479 448.993 727.881 448.803 727.102 448.803C726.375 448.803 725.81 448.958 725.405 449.269C725.007 449.579 724.808 450.013 724.808 450.569C724.808 451.038 725.024 451.431 725.458 451.747C725.892 452.058 726.606 452.362 727.603 452.661C728.599 452.954 729.398 453.291 730.002 453.672C730.605 454.047 731.048 454.48 731.329 454.973C731.61 455.459 731.751 456.03 731.751 456.687C731.751 457.753 731.341 458.603 730.521 459.235C729.706 459.862 728.599 460.176 727.198 460.176C726.272 460.176 725.42 460.006 724.641 459.666C723.867 459.32 723.264 458.846 722.83 458.242C722.402 457.639 722.188 456.936 722.188 456.133H724.412C724.412 456.859 724.652 457.422 725.133 457.82C725.613 458.219 726.302 458.418 727.198 458.418C727.972 458.418 728.552 458.263 728.938 457.952C729.331 457.636 729.527 457.22 729.527 456.704ZM736.049 460H733.834V447.203H736.049V460ZM748.995 453.936C748.995 455.189 748.778 456.291 748.345 457.24C747.911 458.184 747.29 458.91 746.481 459.42C745.679 459.924 744.753 460.176 743.704 460.176C742.667 460.176 741.741 459.924 740.927 459.42C740.118 458.91 739.491 458.187 739.046 457.249C738.606 456.312 738.384 455.23 738.378 454.006V453.285C738.378 452.037 738.598 450.936 739.037 449.98C739.482 449.025 740.106 448.296 740.909 447.792C741.718 447.282 742.644 447.027 743.687 447.027C744.729 447.027 745.652 447.279 746.455 447.783C747.264 448.281 747.888 449.002 748.327 449.945C748.767 450.883 748.989 451.976 748.995 453.224V453.936ZM746.771 453.268C746.771 451.85 746.502 450.763 745.963 450.007C745.43 449.251 744.671 448.873 743.687 448.873C742.726 448.873 741.973 449.251 741.428 450.007C740.889 450.757 740.613 451.82 740.602 453.197V453.936C740.602 455.342 740.874 456.429 741.419 457.196C741.97 457.964 742.731 458.348 743.704 458.348C744.688 458.348 745.444 457.973 745.972 457.223C746.505 456.473 746.771 455.377 746.771 453.936V453.268ZM761.361 460H759.138L753.434 450.921V460H751.21V447.203H753.434L759.155 456.317V447.203H761.361V460ZM771.311 457.021H766.354L765.316 460H763.005L767.839 447.203H769.834L774.677 460H772.356L771.311 457.021ZM766.978 455.228H770.687L768.832 449.919L766.978 455.228ZM778.359 458.225H784.169V460H776.136V447.203H778.359V458.225ZM696.604 472.996H692.613V484H690.407V472.996H686.452V471.203H696.604V472.996ZM707.651 471.203V479.755C707.651 481.114 707.215 482.192 706.342 482.989C705.475 483.78 704.317 484.176 702.87 484.176C701.405 484.176 700.242 483.786 699.381 483.007C698.52 482.222 698.089 481.135 698.089 479.746V471.203H700.304V479.764C700.304 480.619 700.521 481.272 700.954 481.724C701.388 482.175 702.026 482.4 702.87 482.4C704.581 482.4 705.437 481.498 705.437 479.693V471.203H707.651ZM719.279 472.996H715.289V484H713.083V472.996H709.128V471.203H719.279V472.996ZM730.934 477.936C730.934 479.189 730.717 480.291 730.283 481.24C729.85 482.184 729.229 482.91 728.42 483.42C727.617 483.924 726.691 484.176 725.643 484.176C724.605 484.176 723.68 483.924 722.865 483.42C722.057 482.91 721.43 482.187 720.984 481.249C720.545 480.312 720.322 479.23 720.316 478.006V477.285C720.316 476.037 720.536 474.936 720.976 473.98C721.421 473.025 722.045 472.296 722.848 471.792C723.656 471.282 724.582 471.027 725.625 471.027C726.668 471.027 727.591 471.279 728.394 471.783C729.202 472.281 729.826 473.002 730.266 473.945C730.705 474.883 730.928 475.976 730.934 477.224V477.936ZM728.71 477.268C728.71 475.85 728.44 474.763 727.901 474.007C727.368 473.251 726.609 472.873 725.625 472.873C724.664 472.873 723.911 473.251 723.366 474.007C722.827 474.757 722.552 475.82 722.54 477.197V477.936C722.54 479.342 722.812 480.429 723.357 481.196C723.908 481.964 724.67 482.348 725.643 482.348C726.627 482.348 727.383 481.973 727.91 481.223C728.443 480.473 728.71 479.377 728.71 477.936V477.268ZM737.851 479.069H735.372V484H733.148V471.203H737.648C739.125 471.203 740.265 471.534 741.067 472.196C741.87 472.858 742.271 473.816 742.271 475.07C742.271 475.926 742.063 476.644 741.647 477.224C741.237 477.798 740.663 478.24 739.925 478.551L742.799 483.886V484H740.417L737.851 479.069ZM735.372 477.285H737.657C738.407 477.285 738.993 477.098 739.415 476.723C739.837 476.342 740.048 475.823 740.048 475.167C740.048 474.481 739.852 473.951 739.459 473.576C739.072 473.201 738.492 473.008 737.719 472.996H735.372V477.285ZM751.069 480.704C751.069 480.142 750.87 479.708 750.472 479.403C750.079 479.099 749.367 478.791 748.336 478.48C747.305 478.17 746.484 477.824 745.875 477.443C744.709 476.711 744.126 475.756 744.126 474.578C744.126 473.547 744.545 472.697 745.383 472.029C746.227 471.361 747.319 471.027 748.661 471.027C749.552 471.027 750.346 471.191 751.043 471.52C751.74 471.848 752.288 472.316 752.687 472.926C753.085 473.529 753.284 474.2 753.284 474.938H751.069C751.069 474.271 750.858 473.749 750.437 473.374C750.021 472.993 749.423 472.803 748.644 472.803C747.917 472.803 747.352 472.958 746.947 473.269C746.549 473.579 746.35 474.013 746.35 474.569C746.35 475.038 746.566 475.431 747 475.747C747.434 476.058 748.148 476.362 749.145 476.661C750.141 476.954 750.94 477.291 751.544 477.672C752.147 478.047 752.59 478.48 752.871 478.973C753.152 479.459 753.293 480.03 753.293 480.687C753.293 481.753 752.883 482.603 752.062 483.235C751.248 483.862 750.141 484.176 748.74 484.176C747.814 484.176 746.962 484.006 746.183 483.666C745.409 483.32 744.806 482.846 744.372 482.242C743.944 481.639 743.73 480.936 743.73 480.133H745.954C745.954 480.859 746.194 481.422 746.675 481.82C747.155 482.219 747.844 482.418 748.74 482.418C749.514 482.418 750.094 482.263 750.48 481.952C750.873 481.636 751.069 481.22 751.069 480.704Z" fill="#125730"/>
<path d="M992.69 372H987.751V352.962L981.855 354.791V350.774L992.16 347.083H992.69V372ZM1017.54 361.712C1017.54 365.153 1016.83 367.785 1015.4 369.607C1013.98 371.43 1011.89 372.342 1009.15 372.342C1006.44 372.342 1004.36 371.447 1002.93 369.659C1001.49 367.87 1000.76 365.306 1000.72 361.968V357.388C1000.72 353.913 1001.44 351.276 1002.88 349.476C1004.32 347.675 1006.4 346.775 1009.11 346.775C1011.82 346.775 1013.9 347.67 1015.33 349.458C1016.77 351.236 1017.5 353.794 1017.54 357.132V361.712ZM1012.6 356.688C1012.6 354.625 1012.31 353.127 1011.75 352.193C1011.19 351.247 1010.31 350.774 1009.11 350.774C1007.95 350.774 1007.09 351.224 1006.53 352.125C1005.99 353.013 1005.7 354.409 1005.66 356.312V362.361C1005.66 364.389 1005.93 365.899 1006.48 366.89C1007.04 367.87 1007.93 368.36 1009.15 368.36C1010.36 368.36 1011.23 367.887 1011.76 366.941C1012.3 365.996 1012.58 364.549 1012.6 362.601V356.688ZM1027.81 364.583L1026.03 366.36V372H1021.09V345.75H1026.03V360.293L1026.99 359.063L1031.72 353.509H1037.65L1030.97 361.216L1038.23 372H1032.56L1027.81 364.583ZM1049.75 358.072H1055.92V362.532H1049.75V369.505H1045.05V362.532H1038.87V358.072H1045.05V351.39H1049.75V358.072Z" fill="#125730"/>
<rect x="946.5" y="288.5" width="143" height="143" rx="71.5" stroke="#125730"/>
<path opacity="0.8" d="M995.896 457.021H990.938L989.901 460H987.59L992.424 447.203H994.419L999.262 460H996.941L995.896 457.021ZM991.562 455.228H995.271L993.417 449.919L991.562 455.228ZM1010.29 455.834C1010.16 457.199 1009.66 458.266 1008.78 459.033C1007.9 459.795 1006.73 460.176 1005.27 460.176C1004.25 460.176 1003.35 459.936 1002.58 459.455C1001.8 458.969 1001.2 458.28 1000.78 457.39C1000.36 456.499 1000.14 455.465 1000.12 454.287V453.092C1000.12 451.885 1000.34 450.821 1000.76 449.901C1001.19 448.981 1001.8 448.272 1002.6 447.774C1003.4 447.276 1004.33 447.027 1005.38 447.027C1006.79 447.027 1007.93 447.411 1008.79 448.179C1009.65 448.946 1010.15 450.03 1010.29 451.431H1008.08C1007.97 450.511 1007.7 449.849 1007.27 449.444C1006.84 449.034 1006.21 448.829 1005.38 448.829C1004.41 448.829 1003.67 449.184 1003.15 449.893C1002.63 450.596 1002.37 451.63 1002.36 452.995V454.129C1002.36 455.512 1002.6 456.566 1003.09 457.293C1003.59 458.02 1004.32 458.383 1005.27 458.383C1006.15 458.383 1006.8 458.187 1007.24 457.794C1007.68 457.401 1007.96 456.748 1008.08 455.834H1010.29ZM1021.27 448.996H1017.28V460H1015.07V448.996H1011.12V447.203H1021.27V448.996ZM1025.3 460H1023.09V447.203H1025.3V460ZM1032.55 457.214L1035.8 447.203H1038.24L1033.64 460H1031.48L1026.89 447.203H1029.33L1032.55 457.214ZM1047.17 454.287H1041.92V458.225H1048.06V460H1039.69V447.203H1048V448.996H1041.92V452.529H1047.17V454.287ZM981.165 480.704C981.165 480.142 980.966 479.708 980.567 479.403C980.175 479.099 979.463 478.791 978.432 478.48C977.4 478.17 976.58 477.824 975.971 477.443C974.805 476.711 974.222 475.756 974.222 474.578C974.222 473.547 974.641 472.697 975.479 472.029C976.322 471.361 977.415 471.027 978.757 471.027C979.647 471.027 980.441 471.191 981.139 471.52C981.836 471.848 982.384 472.316 982.782 472.926C983.181 473.529 983.38 474.2 983.38 474.938H981.165C981.165 474.271 980.954 473.749 980.532 473.374C980.116 472.993 979.519 472.803 978.739 472.803C978.013 472.803 977.447 472.958 977.043 473.269C976.645 473.579 976.445 474.013 976.445 474.569C976.445 475.038 976.662 475.431 977.096 475.747C977.529 476.058 978.244 476.362 979.24 476.661C980.236 476.954 981.036 477.291 981.64 477.672C982.243 478.047 982.686 478.48 982.967 478.973C983.248 479.459 983.389 480.03 983.389 480.687C983.389 481.753 982.979 482.603 982.158 483.235C981.344 483.862 980.236 484.176 978.836 484.176C977.91 484.176 977.058 484.006 976.278 483.666C975.505 483.32 974.901 482.846 974.468 482.242C974.04 481.639 973.826 480.936 973.826 480.133H976.05C976.05 480.859 976.29 481.422 976.771 481.82C977.251 482.219 977.939 482.418 978.836 482.418C979.609 482.418 980.189 482.263 980.576 481.952C980.969 481.636 981.165 481.22 981.165 480.704ZM994.586 472.996H990.596V484H988.39V472.996H984.435V471.203H994.586V472.996ZM1005.63 471.203V479.755C1005.63 481.114 1005.2 482.192 1004.32 482.989C1003.46 483.78 1002.3 484.176 1000.85 484.176C999.388 484.176 998.225 483.786 997.363 483.007C996.502 482.222 996.071 481.135 996.071 479.746V471.203H998.286V479.764C998.286 480.619 998.503 481.272 998.937 481.724C999.37 482.175 1000.01 482.4 1000.85 482.4C1002.56 482.4 1003.42 481.498 1003.42 479.693V471.203H1005.63ZM1008.02 484V471.203H1011.79C1012.93 471.203 1013.93 471.455 1014.8 471.959C1015.68 472.463 1016.36 473.178 1016.84 474.104C1017.32 475.029 1017.56 476.09 1017.56 477.285V477.927C1017.56 479.14 1017.32 480.206 1016.83 481.126C1016.35 482.046 1015.66 482.755 1014.77 483.253C1013.88 483.751 1012.85 484 1011.7 484H1008.02ZM1010.24 472.996V482.225H1011.69C1012.86 482.225 1013.75 481.861 1014.37 481.135C1015 480.402 1015.32 479.354 1015.33 477.988V477.276C1015.33 475.888 1015.03 474.827 1014.42 474.095C1013.82 473.362 1012.94 472.996 1011.79 472.996H1010.24ZM1027.25 478.287H1022V482.225H1028.14V484H1019.78V471.203H1028.08V472.996H1022V476.529H1027.25V478.287ZM1040.1 484H1037.88L1032.18 474.921V484H1029.95V471.203H1032.18L1037.9 480.317V471.203H1040.1V484ZM1051.71 472.996H1047.72V484H1045.52V472.996H1041.56V471.203H1051.71V472.996ZM1059.95 480.704C1059.95 480.142 1059.75 479.708 1059.35 479.403C1058.96 479.099 1058.25 478.791 1057.22 478.48C1056.19 478.17 1055.37 477.824 1054.76 477.443C1053.59 476.711 1053.01 475.756 1053.01 474.578C1053.01 473.547 1053.43 472.697 1054.26 472.029C1055.11 471.361 1056.2 471.027 1057.54 471.027C1058.43 471.027 1059.23 471.191 1059.92 471.52C1060.62 471.848 1061.17 472.316 1061.57 472.926C1061.97 473.529 1062.17 474.2 1062.17 474.938H1059.95C1059.95 474.271 1059.74 473.749 1059.32 473.374C1058.9 472.993 1058.3 472.803 1057.52 472.803C1056.8 472.803 1056.23 472.958 1055.83 473.269C1055.43 473.579 1055.23 474.013 1055.23 474.569C1055.23 475.038 1055.45 475.431 1055.88 475.747C1056.31 476.058 1057.03 476.362 1058.03 476.661C1059.02 476.954 1059.82 477.291 1060.42 477.672C1061.03 478.047 1061.47 478.48 1061.75 478.973C1062.03 479.459 1062.17 480.03 1062.17 480.687C1062.17 481.753 1061.76 482.603 1060.94 483.235C1060.13 483.862 1059.02 484.176 1057.62 484.176C1056.7 484.176 1055.84 484.006 1055.06 483.666C1054.29 483.32 1053.69 482.846 1053.25 482.242C1052.83 481.639 1052.61 480.936 1052.61 480.133H1054.83C1054.83 480.859 1055.08 481.422 1055.56 481.82C1056.04 482.219 1056.72 482.418 1057.62 482.418C1058.39 482.418 1058.97 482.263 1059.36 481.952C1059.75 481.636 1059.95 481.22 1059.95 480.704Z" fill="#125730"/>
<path opacity="0.3" d="M420.237 1767.03C421.287 1767.03 421.287 1768.08 422.337 1768.08C615.529 1853.15 890.618 1773.33 1007.16 1594.78C1132.11 1403.64 1073.31 1077.01 842.32 1002.44C753.073 974.082 624.978 990.886 521.033 1042.35C599.779 989.836 693.226 952.026 787.722 946.775C889.568 941.524 949.415 1006.64 999.813 1088.56C1095.36 1242.95 1136.31 1488.71 1043.91 1654.65C963.065 1800.64 695.326 1925.62 534.682 1867.85C386.638 1814.29 307.891 2045.35 454.885 2098.91C728.924 2197.63 1125.81 2016.99 1260.2 1763.88C1409.3 1483.46 1333.7 1088.56 1127.91 856.453C894.817 590.737 505.283 716.768 275.343 927.87C7.60333 1172.58 49.6016 1587.43 382.438 1753.37C395.038 1759.68 407.637 1763.88 420.237 1767.03ZM671.177 1244C725.774 1224.04 764.623 1228.24 788.772 1251.35C748.873 1249.25 707.925 1263.95 680.626 1300.71C677.476 1298.61 673.276 1296.51 668.027 1292.31C653.327 1281.81 632.328 1278.66 616.579 1271.3C631.278 1259.75 654.377 1250.3 671.177 1244ZM336.24 1307.01C335.19 1258.7 350.939 1216.69 375.088 1178.88C354.089 1221.94 347.79 1270.25 362.489 1324.87C399.237 1461.4 554.631 1545.42 692.176 1537.02C628.128 1563.28 566.181 1565.38 502.133 1537.02C495.834 1533.87 488.484 1531.77 482.184 1529.67C401.337 1481.36 338.34 1408.89 336.24 1307.01Z" fill="#F1AC2E"/>
</g>
</svg>
