<svg width="72" height="72" viewBox="0 0 72 72" fill="none" xmlns="http://www.w3.org/2000/svg">
<g clip-path="url(#clip0)">
<path d="M8.64687 43.1945C8.64687 27.5044 21.4123 14.7389 37.1024 14.7389C52.7925 14.7389 65.5578 27.5045 65.5578 43.1945C65.5578 58.8846 52.7924 71.65 37.1024 71.65C21.4123 71.65 8.64687 58.8847 8.64687 43.1945ZM12.1656 43.1945C12.1656 56.9449 23.352 68.1313 37.1024 68.1313C50.8529 68.1313 62.0391 56.9449 62.0391 43.1945C62.0391 29.4442 50.8527 18.2578 37.1024 18.2578C23.352 18.2578 12.1656 29.4442 12.1656 43.1945Z" fill="black" stroke="#F8D597" stroke-width="0.7"/>
<path d="M46.9735 49.0069L46.9735 49.007C44.4984 51.8924 40.9004 53.5477 37.1024 53.5477C33.3047 53.5477 29.7067 51.8925 27.2316 49.0071C26.599 48.2696 25.4884 48.1847 24.7508 48.8172L46.9735 49.0069ZM46.9735 49.0069C47.606 48.2694 48.7167 48.1844 49.4543 48.817C50.1918 49.4497 50.2768 50.5604 49.6443 51.2978L49.6443 51.2978C46.4997 54.9641 41.9285 57.0664 37.1025 57.0664C32.2767 57.0664 27.7055 54.9641 24.5609 51.2981L24.5609 51.298M46.9735 49.0069L24.5609 51.298M24.5609 51.298C23.9283 50.5607 24.0133 49.4499 24.7508 48.8173L24.5609 51.298Z" fill="black" stroke="#F8D597" stroke-width="0.7"/>
<path d="M27.1515 37.7673C27.1515 38.7389 26.3637 39.5267 25.3921 39.5267C24.4204 39.5267 23.6327 38.7391 23.6327 37.7673C23.6327 34.9581 25.9188 32.672 28.728 32.672C31.5372 32.672 33.8233 34.9581 33.8233 37.7673C33.8233 38.7389 33.0355 39.5267 32.0639 39.5267C31.0923 39.5267 30.3045 38.7389 30.3045 37.7673C30.3045 36.8977 29.5976 36.1908 28.728 36.1908C27.8584 36.1908 27.1515 36.8977 27.1515 37.7673Z" fill="black" stroke="#F8D597" stroke-width="0.7"/>
<path d="M40.3817 37.7676C40.3817 34.9584 42.6678 32.6723 45.477 32.6723C48.2862 32.6723 50.5723 34.9582 50.5723 37.7676C50.5723 38.7392 49.7846 39.5269 48.8129 39.5269C47.8413 39.5269 47.0535 38.7392 47.0535 37.7676C47.0535 36.898 46.3466 36.191 45.477 36.191C44.6074 36.191 43.9005 36.898 43.9005 37.7676C43.9005 38.7392 43.1128 39.5269 42.1411 39.5269C41.1695 39.5269 40.3817 38.7392 40.3817 37.7676Z" fill="black" stroke="#F8D597" stroke-width="0.7"/>
<path d="M57.5583 11.4991H54.481C53.5093 11.4991 52.7216 10.7114 52.7216 9.73975C52.7216 8.76811 53.5093 7.98037 54.481 7.98037H57.5583C58.5299 7.98037 59.3176 8.76811 59.3176 9.73975C59.3176 10.7114 58.5299 11.4991 57.5583 11.4991Z" fill="black" stroke="#F8D597" stroke-width="0.7"/>
<path d="M63.9452 17.37C63.9452 18.3417 63.1574 19.1294 62.1858 19.1294C61.2141 19.1294 60.4264 18.3418 60.4264 17.37V14.2927C60.4264 13.3211 61.2142 12.5333 62.1858 12.5333C63.1574 12.5333 63.9452 13.3211 63.9452 14.2927V17.37Z" fill="black" stroke="#F8D597" stroke-width="0.7"/>
<path d="M66.8132 7.98037H69.8905C70.8622 7.98037 71.6499 8.76811 71.6499 9.73975C71.6499 10.7114 70.8622 11.4991 69.8905 11.4991H66.8132C65.8416 11.4991 65.0539 10.7114 65.0539 9.73975C65.0539 8.76811 65.8416 7.98037 66.8132 7.98037Z" fill="black" stroke="#F8D597" stroke-width="0.7"/>
<path d="M63.9452 5.18667C63.9452 6.15831 63.1574 6.94605 62.1858 6.94605C61.2142 6.94605 60.4264 6.15831 60.4264 5.18667V2.10938C60.4264 1.13774 61.2142 0.35 62.1858 0.35C63.1574 0.35 63.9452 1.13774 63.9452 2.10938V5.18667Z" fill="black" stroke="#F8D597" stroke-width="0.7"/>
<path d="M2.10938 10.7929H4.56609C5.53773 10.7929 6.32547 11.5806 6.32547 12.5522C6.32547 13.5239 5.53773 14.3116 4.56609 14.3116H2.10938C1.13774 14.3116 0.35 13.5239 0.35 12.5522C0.35 11.5806 1.13774 10.7929 2.10938 10.7929Z" fill="black" stroke="#F8D597" stroke-width="0.7"/>
<path d="M10.723 16.8904V19.3471C10.723 20.3187 9.93526 21.1065 8.96362 21.1065C7.99198 21.1065 7.20425 20.3187 7.20425 19.3471V16.8904C7.20425 15.9187 7.99199 15.131 8.96362 15.131C9.93526 15.131 10.723 15.9187 10.723 16.8904Z" fill="black" stroke="#F8D597" stroke-width="0.7"/>
<path d="M15.818 14.3116H13.3613C12.3897 14.3116 11.602 13.5239 11.602 12.5522C11.602 11.5806 12.3897 10.7929 13.3613 10.7929H15.818C16.7897 10.7929 17.5774 11.5806 17.5774 12.5522C17.5774 13.5239 16.7897 14.3116 15.818 14.3116Z" fill="black" stroke="#F8D597" stroke-width="0.7"/>
<path d="M10.723 8.21429C10.723 9.18593 9.93526 9.97366 8.96362 9.97366C7.99198 9.97366 7.20425 9.18593 7.20425 8.21429V5.75757C7.20425 4.78593 7.99199 3.99819 8.96362 3.99819C9.93526 3.99819 10.723 4.78593 10.723 5.75757V8.21429Z" fill="black" stroke="#F8D597" stroke-width="0.7"/>
</g>
<defs>
<clipPath id="clip0">
<rect width="72" height="72" fill="white"/>
</clipPath>
</defs>
</svg>
