<svg width="66" height="58" viewBox="0 0 66 58" fill="none" xmlns="http://www.w3.org/2000/svg">
<path d="M65.3438 27.0625C65.3438 23.9609 62.8204 21.4375 59.7188 21.4375H49.2208C50.846 17.2746 51.5039 12.3746 51.377 8.01287C51.3528 7.18051 51.3209 6.69916 51.2777 6.39611C51.205 3.35763 48.7101 0.90625 45.6562 0.90625C42.5546 0.90625 40.0312 3.42963 40.0312 6.53125V7.9375C40.0312 16.8315 28.6105 21.8286 19.9916 23.9714C19.34 22.4816 17.8524 21.4375 16.125 21.4375H2.0625C1.28597 21.4375 0.65625 22.0672 0.65625 22.8438V56.5938C0.65625 57.3703 1.28597 58 2.0625 58H16.125C17.8409 58 19.3199 56.9696 19.9783 55.4956C20.6919 55.6787 21.3544 55.8517 21.966 56.0114C26.8759 57.2938 29.5806 58 36.1584 58H51.2812C54.3829 58 56.9062 55.4766 56.9062 52.375C56.9062 51.2185 56.5551 50.1427 55.9542 49.2478C58.1266 48.488 59.7188 46.4124 59.7188 43.9375C59.7188 42.7852 59.3762 41.7059 58.7771 40.8069C60.9399 40.0458 62.5312 37.975 62.5312 35.5C62.5312 34.3435 62.1801 33.2677 61.5792 32.3728C63.7516 31.613 65.3438 29.5374 65.3438 27.0625ZM17.5312 53.7812C17.5312 54.5567 16.9004 55.1875 16.125 55.1875H3.46875V24.25H16.125C16.9004 24.25 17.5312 24.8808 17.5312 25.6562V53.7812ZM59.7188 29.875C56.7025 29.875 55.9835 29.875 52.6875 29.875C51.911 29.875 51.2812 30.5047 51.2812 31.2812C51.2812 32.0578 51.911 32.6875 52.6875 32.6875H56.9062C58.4571 32.6875 59.7188 33.9492 59.7188 35.5C59.7188 37.0533 58.4596 38.3125 56.9062 38.3125H49.875C49.0985 38.3125 48.4688 38.9422 48.4688 39.7188C48.4688 40.4953 49.0985 41.125 49.875 41.125H54.0938C55.6261 41.125 56.9062 42.3491 56.9062 43.9375C56.9062 45.4908 55.6471 46.75 54.0938 46.75C51.0775 46.75 50.3585 46.75 47.0625 46.75C46.286 46.75 45.6562 47.3797 45.6562 48.1562C45.6562 48.9328 46.286 49.5625 47.0625 49.5625H51.2812C52.8321 49.5625 54.0938 50.8242 54.0938 52.375C54.0938 53.9258 52.8321 55.1875 51.2812 55.1875H36.1584C29.9418 55.1875 27.5138 54.5534 22.6767 53.2902C21.9681 53.1051 21.1909 52.9022 20.3438 52.6862V26.7848C30.5205 24.3607 42.8438 18.4437 42.8438 7.9375V6.53125C42.8438 4.98044 44.1054 3.71875 45.6562 3.71875C47.2043 3.71875 48.4658 4.97847 48.4688 6.52689V6.53125C48.4688 7.14241 49.2315 14.6429 46.1729 21.4375H41.4375C40.661 21.4375 40.0312 22.0672 40.0312 22.8438C40.0312 23.6203 40.661 24.25 41.4375 24.25C42.4195 24.25 58.1159 24.25 59.7188 24.25C61.2696 24.25 62.5312 25.5117 62.5312 27.0625C62.5312 28.6158 61.2721 29.875 59.7188 29.875Z" fill="black"/>
</svg>
