<svg width="398" height="403" viewBox="0 0 398 403" fill="none" xmlns="http://www.w3.org/2000/svg">
<path opacity="0.5" d="M42.7417 130.24C76.0407 100.108 122.726 85.5733 167.525 89.3681C190.097 91.4474 212.559 97.7661 232.413 109.311C251.922 120.493 268.841 136.194 281.81 154.254C308.436 191.101 320.642 238.837 311.363 283.465C306.143 307.707 295.254 332.488 274.383 346.723C266.829 351.804 258.948 355.814 250.035 358.734C245.397 360.365 241.847 360.967 237.227 361.892C232.97 362.473 229.075 362.712 225.561 361.902C224.854 361.881 223.804 361.496 223.097 361.475C221.684 361.434 222.391 361.455 223.097 361.475C222.753 361.112 222.046 361.091 222.046 361.091C220.996 360.706 220.652 360.343 219.601 359.958C220.996 360.706 218.913 359.231 218.568 358.867C217.174 358.119 218.913 359.231 217.88 358.14C217.536 357.776 216.177 355.615 216.848 357.049C216.522 355.978 216.177 355.615 215.851 354.544C215.851 354.544 215.525 353.474 215.507 354.181C215.525 353.474 215.181 353.11 215.2 352.404C215.236 350.991 215.181 353.11 215.2 352.404C215.562 352.061 215.218 351.697 215.58 351.354C215.598 350.648 215.236 350.991 215.979 349.598C216.722 348.206 217.464 346.814 219.276 345.099C221.831 341.993 225.436 339.27 229.041 336.548C237.339 330.075 245.274 323.945 251.506 315.29C258.119 305.585 263.337 295.132 267.161 283.931C281.766 238.399 271.083 186.465 235.869 153.608C202.05 121.498 148.61 110.024 105.041 127.125C91.4722 132.382 78.5188 141.193 74.9669 155.584C71.4695 167.856 76.7943 180.741 88.6776 186.041C98.8037 190.935 110.869 189.169 121.521 187.362C132.879 185.575 144.22 184.495 155.488 186.241C177.316 189.713 198.927 201.663 209.378 221.417C219.159 239.736 219.935 264.508 207.815 282.182C202.669 289.809 195.078 296.303 185.549 295.668C182.723 295.585 180.278 294.452 178.938 291.585C177.271 287.646 179.174 282.399 180.334 278.544C182.255 272.59 184.519 267 185.39 260.662C186.622 253.981 186.097 246.894 184.848 240.493C181.987 228.034 173.075 217.165 160.793 213.621C148.873 209.735 135.721 212.529 127.695 222.192C121.499 229.434 133.273 238.974 139.469 231.731C145.666 224.489 158.346 226.277 164.541 232.824C172.819 240.846 172.818 254.634 170.082 264.807C166.602 276.372 160.279 288.56 167.397 300.437C172.795 310.496 185.494 311.577 196.526 308.72C219.316 302.32 230.949 276.146 232.219 254.263C232.855 229.533 222.857 205.904 203.457 190.483C183.713 174.698 157.717 168.276 132.555 170.716C121.921 171.817 111.577 175.401 100.997 174.383C97.1205 173.915 93.262 172.741 91.2334 169.145C88.8606 165.186 89.7126 159.554 91.5788 155.72C97.1593 144.924 112.485 140.073 123.518 137.216C134.188 134.702 145.529 133.622 156.108 134.64C178.698 136.013 200.762 144.088 218.786 158.054C255.177 186.35 268.379 236.59 253.484 279.639C250.023 290.497 244.461 300.586 237.503 309.927C231.651 317.533 223.753 322.25 216.162 328.744C208.208 335.581 200.581 343.488 201.015 354.107C201.485 363.314 207.281 371.616 216.031 375.056C224.78 378.496 234.327 378.423 243.222 376.211C253.168 374.382 262.805 370.777 272.117 366.102C294.69 354.392 310.76 334.36 319.856 310.586C336.962 264.067 330.898 211.209 308.311 168.47C285.743 125.025 246.979 92.7698 199.934 80.0699C153.596 67.3909 103.216 74.3918 61.6028 97.9146C51.9105 103.64 42.5442 110.435 33.8662 117.957C30.9675 120.7 29.4454 124.898 32.1805 128.514C34.2273 131.403 39.4806 133.325 42.7417 130.24Z" fill="#D8D8D8"/>
</svg>
