<svg width="1439" height="769" viewBox="0 0 1439 769" fill="none" xmlns="http://www.w3.org/2000/svg">
<mask id="mask0" mask-type="alpha" maskUnits="userSpaceOnUse" x="-1" y="-7" width="1440" height="776">
<path d="M-1 -7H1439V768.5C1439 768.5 1139 694 719 694C299 694 -1 768.5 -1 768.5V-7Z" fill="#125730"/>
</mask>
<g mask="url(#mask0)">
</g>
<mask id="mask1" mask-type="alpha" maskUnits="userSpaceOnUse" x="-1" y="-7" width="1440" height="776">
<path d="M-1 -7H1439V768.5C1439 768.5 1139 694 719 694C299 694 -1 768.5 -1 768.5V-7Z" fill="#125730"/>
</mask>
<g mask="url(#mask1)">
<path opacity="0.5" d="M-114.427 323.233C-81.1285 293.102 -34.4436 278.567 10.3557 282.362C32.9274 284.441 55.3901 290.76 75.2436 302.305C94.753 313.487 111.671 329.188 124.641 347.248C151.267 384.095 163.473 431.831 154.194 476.459C148.974 500.701 138.084 525.482 117.214 539.717C109.66 544.797 101.779 548.808 92.8658 551.727C88.2281 553.358 84.6774 553.961 80.0579 554.886C75.8007 555.467 71.9059 555.706 68.3915 554.895C67.685 554.875 66.6343 554.49 65.9279 554.469C64.5148 554.428 65.2213 554.448 65.9279 554.469C65.5837 554.106 64.8772 554.085 64.8772 554.085C63.8265 553.7 63.4824 553.336 62.4317 552.952C63.8265 553.7 61.7434 552.225 61.3992 551.861C60.0044 551.113 61.7434 552.225 60.7109 551.134C60.3667 550.77 59.0083 548.608 59.6784 550.042C59.3524 548.972 59.0083 548.608 58.6823 547.538C58.6823 547.538 58.3563 546.468 58.3381 547.174C58.3563 546.468 58.0121 546.104 58.0303 545.398C58.0667 543.985 58.0121 546.104 58.0303 545.398C58.3927 545.055 58.0485 544.691 58.4108 544.348C58.429 543.642 58.0667 543.985 58.8095 542.592C59.5524 541.2 60.2952 539.808 62.1069 538.093C64.6615 534.986 68.2667 532.264 71.872 529.542C80.1694 523.069 88.1046 516.939 94.3371 508.283C100.95 498.579 106.168 488.126 109.992 476.925C124.597 431.393 113.913 379.459 78.6997 346.601C44.881 314.492 -8.55873 303.018 -52.128 320.119C-65.697 325.376 -78.6504 334.187 -82.2023 348.578C-85.6997 360.85 -80.3749 373.734 -68.4916 379.034C-58.3655 383.929 -46.3004 382.163 -35.6483 380.356C-24.2897 378.569 -12.9493 377.489 -1.68165 379.235C20.1472 382.707 41.7579 394.657 52.2088 414.411C61.9895 432.73 62.7663 457.502 50.6454 475.176C45.5 482.803 37.909 489.297 28.3803 488.662C25.5543 488.579 23.1088 487.446 21.7685 484.578C20.1022 480.64 22.0048 475.393 23.1646 471.538C25.0854 465.584 27.3503 459.994 28.2204 453.656C29.4528 446.974 28.9281 439.888 27.6787 433.487C24.8176 421.028 15.9057 410.159 3.62375 406.615C-8.2959 402.728 -21.448 405.523 -29.474 415.186C-35.6702 422.428 -23.896 431.967 -17.6998 424.725C-11.5037 417.483 1.17702 419.271 7.37193 425.818C15.65 433.84 15.6488 447.628 12.9124 457.801C9.43322 469.366 3.10983 481.554 10.2282 493.431C15.6257 503.489 28.3245 504.571 39.3571 501.714C62.147 495.314 73.7795 469.14 75.0495 447.257C75.6858 422.527 65.6881 398.898 46.2878 383.477C26.5433 367.692 0.548166 361.269 -24.6145 363.71C-35.2484 364.811 -45.5926 368.395 -56.172 367.376C-60.0487 366.909 -63.9072 365.734 -65.9358 362.139C-68.3086 358.18 -67.4566 352.548 -65.5904 348.714C-60.0099 337.918 -44.6837 333.067 -33.6511 330.21C-22.9809 327.696 -11.6405 326.615 -1.06111 327.634C21.5288 329.007 43.5927 337.082 61.6164 351.048C98.0079 379.344 111.21 429.584 96.3148 472.633C92.8538 483.491 87.2915 493.58 80.3343 502.921C74.4823 510.527 66.5835 515.244 58.9925 521.738C51.0392 528.575 43.4119 536.482 43.8457 547.101C44.3159 556.307 50.1121 564.61 58.8616 568.05C67.6111 571.489 77.1579 571.417 86.0528 569.204C95.9984 567.376 105.636 563.771 114.948 559.096C137.521 547.386 153.591 527.353 162.687 503.58C179.792 457.061 173.728 404.202 151.142 361.464C128.574 318.019 89.81 285.764 42.7651 273.064C-3.57316 260.385 -53.953 267.386 -95.5664 290.908C-105.259 296.633 -114.625 303.428 -123.303 310.951C-126.202 313.694 -127.724 317.892 -124.989 321.508C-122.942 324.397 -117.689 326.319 -114.427 323.233Z" fill="#D8D8D8"/>
<path opacity="0.3" d="M615.051 243.643C609.316 264.445 594.132 282.372 574.989 292.382C565.3 297.357 554.563 300.585 543.537 301.021C532.744 301.516 521.836 299.511 511.922 295.531C491.627 287.454 474.373 271.244 466.632 250.756C462.5 239.581 460.527 226.725 465.321 215.574C467.074 211.566 469.236 207.908 472.097 204.427C473.557 202.57 474.842 201.411 476.477 199.845C478.053 198.512 479.571 197.411 481.205 196.834C481.497 196.66 482.022 196.545 482.314 196.372C482.897 196.024 482.605 196.198 482.314 196.372C482.547 196.43 482.839 196.257 482.839 196.257C483.364 196.142 483.597 196.2 484.122 196.086C483.364 196.142 484.589 196.203 484.822 196.262C485.581 196.206 484.589 196.203 485.289 196.379C485.522 196.438 486.63 196.964 485.989 196.556C486.397 196.906 486.63 196.964 487.038 197.314C487.038 197.314 487.446 197.664 487.271 197.373C487.446 197.664 487.679 197.723 487.854 198.014C488.204 198.597 487.679 197.723 487.854 198.014C487.796 198.247 488.029 198.305 487.97 198.538C488.145 198.829 488.204 198.597 488.261 199.353C488.319 200.109 488.377 200.865 488.084 202.027C487.849 203.945 487.089 205.978 486.329 208.011C484.633 212.775 482.996 217.306 482.699 222.422C482.52 228.062 483.098 233.646 484.435 239.173C490.25 261.4 507.969 279.705 530.717 283.951C552.707 288.253 577.334 279.13 590.592 260.965C594.739 255.336 597.72 248.424 595.451 241.673C593.706 235.796 588.225 231.944 582.041 232.858C576.673 233.484 572.236 237.31 568.383 240.788C564.237 244.441 559.917 247.802 554.898 249.998C545.152 254.218 533.309 254.942 523.98 249.627C515.291 244.72 508.591 234.875 508.95 224.584C509.07 220.165 510.474 215.576 514.502 213.376C515.669 212.682 516.953 212.511 518.235 213.328C519.926 214.495 520.507 217.114 521.031 218.976C521.787 221.885 522.309 224.736 523.59 227.53C524.813 230.557 526.852 233.295 529.009 235.568C533.38 239.883 539.796 241.993 545.689 240.264C551.525 238.767 556.137 234.244 556.901 228.257C557.546 223.723 550.313 222.89 549.667 227.424C549.022 231.958 543.419 234.501 539.22 233.444C533.795 232.325 530.241 226.733 528.729 221.903C527.158 216.317 526.581 209.745 520.633 206.764C515.851 204.077 510.424 206.912 506.686 210.914C499.095 219.383 501.125 232.995 506.251 242.196C512.368 252.387 522.513 259.391 534.354 260.644C546.429 261.954 558.625 257.858 568.199 250.382C572.227 247.195 575.498 243.075 580.05 240.761C581.743 239.951 583.61 239.433 585.359 240.368C587.342 241.361 588.448 243.865 588.68 245.9C589.2 251.716 584.236 257.634 580.499 261.637C576.82 265.406 572.5 268.768 567.948 271.082C558.434 276.348 547.406 278.761 536.498 277.744C514.448 275.651 496.144 258.683 491.087 237.388C489.692 232.093 489.346 226.568 489.76 220.987C490.172 216.395 492.159 212.446 493.563 207.856C495.026 203.034 496.08 197.861 493.167 193.667C490.603 190.055 486.113 188.183 481.678 189.043C477.244 189.904 473.391 192.394 470.355 195.584C466.793 198.889 463.815 202.836 461.244 207.132C455.11 217.698 453.757 229.964 456.197 241.948C461.252 265.22 477.337 285.09 497.512 296.598C517.862 308.397 541.894 311.483 564.244 304.506C586.302 297.703 604.925 281.877 615.735 261.613C618.19 256.793 620.236 251.623 621.816 246.336C622.284 244.476 621.819 242.382 619.778 241.621C618.203 240.977 615.578 241.552 615.051 243.643Z" fill="#D8D8D8"/>
<path d="M1420.07 592.602C1420.53 592.919 1421.11 593.115 1421.59 593.359C1420.52 594.128 1419.55 595.091 1418.63 596.151C1413.28 602.414 1413.06 611.87 1420.76 615.608C1420.42 615.897 1420.05 616.258 1419.71 616.547C1412.5 623.309 1410.46 634.329 1420.72 639.337C1422.79 640.363 1425.09 640.979 1427.31 641.328C1425.98 642.652 1424.71 644 1423.52 645.373C1418.6 651.3 1418.48 661.192 1426.01 665.195C1428.88 666.733 1431.95 666.966 1434.96 666.448C1432.91 670.115 1431.51 674.244 1431.73 678.115C1431.77 680.389 1432.24 682.568 1434.63 683.378C1437.46 684.335 1441.48 683.435 1444.24 682.675C1451.82 680.558 1457.87 675.339 1463.7 670.287C1465.08 669.06 1463.16 666.874 1461.77 668.101C1457.42 671.878 1452.95 675.775 1447.67 678.265C1444.69 679.677 1441.44 680.678 1438.1 680.758C1436.41 680.75 1435.27 681.011 1434.65 678.783C1434.16 676.918 1434.89 674.502 1435.48 672.764C1436.36 670.156 1437.54 667.646 1438.95 665.379C1443.75 663.612 1448.31 660.393 1452.12 657.968C1455.13 655.999 1460.37 653.654 1461.98 650.323C1463.2 647.91 1461.57 645.581 1458.9 645.81C1458.66 645.808 1457.69 646.046 1457.33 646.165C1450.62 649.059 1444.72 653.361 1439.97 659.022C1439.03 660.154 1438.12 661.384 1437.17 662.758C1431.51 664.472 1424.98 664.199 1423.07 657.417C1421.15 650.707 1426.71 645.727 1431.37 641.734C1438.7 641.794 1446.26 639.266 1452.76 636.782C1455.91 635.588 1461.6 633.559 1461.14 629.203C1460.6 624.58 1450.54 625.693 1448.06 627.036C1441.9 630.199 1435.55 634.184 1430.08 638.874C1425.78 638.708 1421.62 637.624 1418.64 634.755C1412.55 628.655 1418.14 621.667 1423.87 616.905C1433.1 619.223 1444.07 617.123 1452.62 613.802C1455.58 612.704 1459.03 610.399 1458.15 606.79C1457.39 603.545 1453.86 602.512 1450.99 601.942C1445.83 602.619 1430.74 607.602 1423.02 613.708C1421.81 613.219 1420.68 612.512 1419.74 611.709C1413.89 606.335 1419.95 597.729 1425 594.512C1426.71 594.932 1428.43 595.109 1430.12 595.359C1434.28 595.96 1438.92 596.563 1443.11 595.881C1445.5 595.482 1449.38 594.291 1450.14 591.561C1450.93 588.759 1444.91 587.448 1444.67 587.447C1444.53 587.398 1444.45 587.374 1444.29 587.397C1437.58 587.631 1430.35 588.249 1424.43 591.414C1423.13 590.972 1421.87 590.385 1420.84 589.63C1418.06 587.561 1418.35 584.104 1419.35 581.133C1420.48 577.801 1422.76 576.07 1426.06 575.167C1431.22 573.765 1436.88 573.985 1442.22 573.938C1444.08 573.923 1444.27 570.997 1442.41 571.013C1435.1 571.122 1424 570.029 1418.75 576.244C1414.71 581.014 1414.28 589.188 1420.07 592.602ZM1458.75 648.663C1458.84 648.615 1459.42 648.57 1459.59 648.546C1458.96 649.462 1458.13 650.232 1457.19 650.881C1456.43 651.434 1455.78 651.938 1455.03 652.491C1453.52 653.597 1451.94 654.677 1450.32 655.661C1447.84 657.246 1445.37 658.83 1442.8 660.221C1447.08 655.21 1452.69 651.295 1458.75 648.663ZM1447.32 630.66C1448.82 629.797 1450.45 629.297 1452.14 629.063C1453.66 628.853 1455.48 628.74 1456.54 629.181C1459.82 630.454 1455.78 632.394 1453.98 633.16C1450.2 634.786 1446.25 636.194 1442.28 637.191C1440.25 637.713 1437.9 638.21 1435.55 638.465C1439.22 635.507 1443.15 632.962 1447.32 630.66ZM1428.44 613.444C1435.01 609.049 1450.37 604.721 1450.61 604.722C1452.5 605.118 1457.33 606.109 1454.17 609.722C1453.12 610.902 1451.06 611.255 1449.64 611.659C1446.75 612.541 1443.75 613.3 1440.72 613.89C1436.85 614.597 1431.43 615.345 1426.69 614.548C1427.3 614.188 1427.83 613.804 1428.44 613.444ZM1444.13 590.251C1444.3 590.227 1446.83 590.602 1446.59 591.327C1446.37 592.221 1443.34 592.811 1442.49 592.928C1440.34 593.328 1437.99 593.099 1435.79 592.919C1433.81 592.813 1431.44 592.657 1429.12 592.355C1433.94 590.758 1439.22 590.445 1444.13 590.251Z" fill="#F8D597"/>
<path d="M1298.04 698.944C1294.17 701.996 1291.84 706.157 1295.86 710.262C1296.27 710.685 1296.77 710.977 1297.37 711.023C1297.87 711.316 1298.47 711.362 1299.18 711.394C1303.28 711.255 1307.62 710.147 1310.82 707.41C1314.44 704.269 1315.96 699.264 1311.36 696.286C1306.63 693.089 1302.02 695.877 1298.04 698.944Z" fill="#F8D597"/>
<path d="M1288.15 688.13C1284.49 690.923 1281.35 694.239 1280.49 698.813C1279.04 702.399 1284.3 706.004 1287.17 702.483C1287.68 701.833 1289.39 701.393 1290.16 700.947C1291.15 700.358 1292.14 699.769 1293.12 699.18C1295.09 697.886 1296.92 696.49 1298.61 694.875C1301.13 692.338 1303.13 687.509 1299.53 684.883C1295.7 682.401 1291.06 685.899 1288.15 688.13Z" fill="#F8D597"/>
<path d="M1273.4 715.193C1271.66 717.401 1272.77 719.739 1274.66 720.806C1275.47 721.651 1276.59 722.221 1277.86 721.952C1280.39 721.53 1282.5 720.454 1284.28 718.594C1285.95 716.863 1287.62 714.076 1286.15 711.663C1283.06 706.505 1275.73 712.09 1273.4 715.193Z" fill="#F8D597"/>
<path d="M1290.69 722.059C1289.64 723.126 1289.62 724.894 1290.37 726.216C1290.82 728.043 1292.67 729.704 1294.61 729.236C1299.3 728.085 1304.15 727.385 1308.31 724.769C1310.71 723.187 1310.11 719.142 1307.52 718.158C1301.38 716.071 1295.21 717.518 1290.69 722.059Z" fill="#F8D597"/>
<path d="M1260.23 705.479C1258.83 708.471 1256.22 712.196 1257.56 715.564C1258.73 718.482 1262.01 718.324 1263.83 716.812C1264.76 716.701 1265.54 716.371 1266.38 715.564C1268.57 713.185 1270.7 710.341 1272.1 707.349C1273.67 703.749 1271.77 699.625 1267.54 699.662C1263.75 699.528 1261.63 702.371 1260.23 705.479Z" fill="#F8D597"/>
<path d="M1269.78 723.274C1265.43 724.267 1262.39 727.338 1259.33 730.293C1258.06 731.503 1258.31 733.591 1259.29 734.885C1259.63 736.727 1261.01 738.443 1263.46 738.267C1267.45 738.142 1271.64 737.757 1275.17 735.804C1278.36 734.009 1281.49 730.692 1279.85 726.772C1278.21 722.968 1273.44 722.365 1269.78 723.274Z" fill="#F8D597"/>
<path d="M1282.26 736.129C1280.93 736.76 1280.24 737.901 1280.03 739.102C1279.86 739.594 1279.81 740.188 1279.88 740.768C1280.16 743.087 1282.05 744.154 1284.16 744.136C1288.16 744.126 1292.7 744.641 1296.7 743.69C1300.35 742.781 1301.44 738.064 1297.81 736.264C1292.92 733.791 1287.16 733.777 1282.26 736.129Z" fill="#F8D597"/>
<path d="M1266.42 687.443C1266.17 688.297 1266.04 689.136 1266.25 689.934C1265.94 691.266 1266.35 692.745 1267.52 693.664C1269.08 694.889 1271.78 694.8 1272.97 693.01L1277.05 686.757C1277.73 685.616 1278.78 684.549 1278.98 683.231C1279.24 681.552 1278.33 679.78 1276.82 679.019C1271.66 676.226 1267.85 683.625 1266.42 687.443Z" fill="#F8D597"/>
<path d="M1249.36 687.373C1246.82 690.736 1245.65 694.758 1244.6 698.766C1244.1 700.473 1245.36 702.088 1246.86 702.849C1247.7 704.983 1250.36 706.546 1252.73 704.732C1256.06 702.097 1258.85 698.822 1260.63 695.079C1262.23 691.711 1264.33 686.636 1260.48 684.038C1256.51 681.338 1251.91 684.126 1249.36 687.373Z" fill="#F8D597"/>
<path d="M1239.92 716.621C1237.33 720.462 1236.24 724.122 1235.85 728.757C1235.6 731.61 1238.16 733.303 1240.36 733.039C1241.7 733.349 1243.2 733.168 1244.34 731.856C1247.37 728.669 1250.38 725.366 1252.01 721.288C1253.46 717.703 1253.65 712.386 1249.31 710.554C1244.73 708.633 1242.03 713.546 1239.92 716.621Z" fill="#F8D597"/>
<path d="M1248.77 746.264C1247.61 747.345 1247.72 749.214 1248.46 750.537C1248.96 751.77 1250.02 752.703 1251.45 752.884C1254.65 753.088 1257.68 752.842 1260.74 751.887C1262.21 751.358 1263.66 750.713 1264.68 749.414C1265.8 747.985 1265.77 745.754 1264.65 744.242C1262.96 741.973 1259.05 741.737 1256.5 742.043C1253.5 742.521 1250.97 744 1248.77 746.264Z" fill="#F8D597"/>
<path d="M1235.22 739.185C1233.43 739.987 1232.08 741.444 1231.33 743.063C1226.85 743.954 1227.83 751.13 1232.71 750.662C1235.16 750.485 1237.53 749.613 1239.59 748.189C1241.99 746.607 1244.7 743.694 1242.92 740.614C1241.41 737.854 1237.67 738.067 1235.22 739.185Z" fill="#F8D597"/>
<path d="M1396.31 284.44C1396.07 272.248 1395.16 260.092 1393.99 248.003C1393.95 247.324 1393.46 247.036 1392.95 247.168C1392.78 247.072 1392.69 247.235 1392.53 247.139C1381.49 251.345 1370.75 256.165 1360.07 261.243C1359.9 249.309 1358.8 237.478 1356.66 225.912C1356.62 225.233 1356.04 225.108 1355.52 225.24C1355.36 225.144 1355.1 225.21 1354.84 225.277C1346.01 230.57 1337.02 235.767 1327.73 240.351C1326.83 229.295 1325.31 218.534 1322.94 207.713C1322.74 206.938 1321.81 207.041 1321.36 207.432L1321.1 207.498C1312.65 212.142 1304.21 216.786 1295.53 221.075C1295.44 210.5 1295.24 200.086 1294.99 189.415C1295.02 188.994 1294.37 188.61 1293.75 188.905C1293.59 188.809 1293.43 188.713 1293.17 188.779C1280.41 191.088 1267.82 194.593 1255.42 198.872C1254.29 199.3 1254.76 201.108 1255.89 200.681C1268.12 196.305 1280.52 193.125 1293.21 190.558C1293.31 201.133 1293.57 211.805 1293.66 222.38C1293.12 222.934 1293.87 224.255 1294.84 223.732C1303.87 219.214 1312.57 214.504 1321.37 209.631C1323.5 220.097 1325.12 230.696 1325.9 241.235C1325.96 241.494 1326.03 241.752 1326.19 241.848C1326.23 242.527 1326.78 243.074 1327.65 242.712C1337.03 237.966 1346.19 232.865 1355.11 227.41C1357.09 238.879 1358.13 250.452 1358.24 262.127C1358.3 262.385 1358.37 262.644 1358.53 262.74C1358.66 263.257 1359.31 263.641 1359.93 263.346C1370.44 258.172 1381.34 253.449 1392.21 249.146C1393.42 260.814 1394.1 272.615 1394.37 284.387C1394.44 285.745 1396.38 285.798 1396.31 284.44Z" fill="#125730"/>
<path d="M1384.5 304.402C1384.26 292.21 1383.35 280.055 1382.17 267.966C1382.14 267.287 1381.65 266.999 1381.13 267.131C1380.97 267.035 1380.87 267.197 1380.71 267.101C1369.68 271.308 1358.94 276.128 1348.26 281.205C1348.09 269.272 1346.98 257.441 1344.84 245.875C1344.81 245.196 1344.23 245.07 1343.71 245.203C1343.55 245.107 1343.29 245.173 1343.03 245.239C1334.2 250.532 1325.21 255.729 1315.92 260.314C1315.01 249.258 1313.49 238.497 1311.13 227.676C1310.93 226.901 1310.09 226.841 1309.54 227.395L1309.28 227.461C1300.84 232.105 1292.39 236.749 1283.72 241.038C1283.62 230.462 1283.43 220.049 1283.17 209.377C1283.14 208.699 1282.49 208.314 1281.97 208.447C1281.81 208.351 1281.64 208.255 1281.39 208.321C1268.53 210.792 1256.03 214.135 1243.64 218.414C1242.51 218.842 1242.97 220.65 1244.1 220.223C1256.3 216.268 1268.8 212.925 1281.4 210.52C1281.5 221.096 1281.75 231.768 1281.95 242.181C1281.4 242.734 1282.15 244.055 1283.12 243.532C1292.15 239.014 1300.85 234.304 1309.65 229.432C1311.79 239.898 1313.4 250.497 1314.18 261.036C1314.24 261.294 1314.31 261.552 1314.47 261.648C1314.51 262.327 1315.06 262.874 1315.93 262.513C1325.32 257.766 1334.47 252.665 1343.4 247.21C1345.37 258.68 1346.42 270.252 1346.52 281.927C1346.58 282.186 1346.65 282.444 1346.81 282.54C1346.95 283.057 1347.59 283.441 1348.21 283.146C1358.72 277.972 1369.62 273.249 1380.5 268.946C1381.7 280.615 1382.39 292.416 1382.65 304.187C1382.72 305.545 1384.66 305.598 1384.5 304.402Z" fill="#125730"/>
</g>
</svg>
