<svg width="25" height="25" viewBox="0 0 25 25" fill="none" xmlns="http://www.w3.org/2000/svg">
<path d="M7.95327 10.0024V10.7769C7.95327 11.062 8.18439 11.2931 8.46948 11.2931C8.75463 11.2931 8.98569 11.062 8.98569 10.7769V10.0024C8.98569 9.71737 8.75463 9.48623 8.46948 9.48623C8.18439 9.48623 7.95327 9.71735 7.95327 10.0024Z" fill="#125730" stroke="#125730" stroke-width="0.3"/>
<path d="M16.5303 9.48623C16.2452 9.48623 16.0141 9.71735 16.0141 10.0024V10.7769C16.0141 11.062 16.2452 11.2931 16.5303 11.2931C16.8154 11.2931 17.0465 11.062 17.0465 10.7769V10.0024C17.0465 9.71735 16.8154 9.48623 16.5303 9.48623Z" fill="#125730" stroke="#125730" stroke-width="0.3"/>
<path d="M13.1733 10.4147L13.1734 10.4147C13.3607 10.1998 13.6867 10.1775 13.9017 10.3648C14.1166 10.5521 14.139 10.8782 13.9517 11.0931L13.9517 11.0931C13.5855 11.5132 13.0564 11.7542 12.4999 11.7542C11.9433 11.7542 11.4142 11.5132 11.0481 11.0931L11.0481 11.0931C10.8608 10.8781 10.8832 10.552 11.0981 10.3647L11.0981 10.3647C11.3131 10.1775 11.6391 10.1998 11.8264 10.4148L13.1733 10.4147ZM13.1733 10.4147C13.0032 10.61 12.7577 10.7218 12.4999 10.7218M13.1733 10.4147L12.4999 10.7218M12.4999 10.7218C12.2421 10.7218 11.9966 10.61 11.8265 10.4148L12.4999 10.7218Z" fill="#125730" stroke="#125730" stroke-width="0.3"/>
<mask id="path-4-outside-1" maskUnits="userSpaceOnUse" x="0.287109" y="-1" width="24" height="27" fill="black">
<rect fill="white" x="0.287109" y="-1" width="24" height="27"/>
<path d="M19.5458 2.69697C17.6043 0.957813 15.102 0 12.4998 0C10.4339 0 8.43086 0.59917 6.70703 1.73267C6.53804 1.8438 6.49116 2.07085 6.60225 2.23984C6.71333 2.40884 6.94048 2.45581 7.10942 2.34463C8.71343 1.28989 10.5774 0.732422 12.4998 0.732422C14.9213 0.732422 17.2501 1.62383 19.0571 3.24253C20.638 4.65864 21.7123 6.53013 22.1359 8.58013C21.7931 8.41768 21.4017 8.32549 21.0172 8.31738C20.789 7.70054 20.3003 7.18198 19.6527 6.92837C18.4354 6.45181 17.1737 5.3227 16.4835 4.31875C16.3338 4.09795 16.0025 4.10547 15.865 4.33809C14.9033 5.96743 13.0794 6.84556 11.2182 7.13774C11.8253 5.88882 11.2923 4.46426 11.2648 4.39282C11.1666 4.1375 10.8285 4.07451 10.6465 4.28418C9.4707 5.63813 7.65801 6.31289 5.89927 6.58164C4.95513 6.72593 4.19956 7.41489 3.96626 8.31782C3.59761 8.32764 3.2106 8.41582 2.86362 8.58022C3.29038 6.51436 4.37729 4.63159 5.97827 3.21123C6.12954 3.077 6.14336 2.84556 6.00918 2.69424C5.87495 2.54297 5.64351 2.5291 5.49219 2.66333C3.57466 4.3646 2.34419 6.68403 2.01719 9.20591C1.56436 9.69697 1.28711 10.3522 1.28711 11.0713C1.28711 12.684 2.67598 13.9641 4.29717 13.8133C5.07353 15.7593 6.52573 17.3711 8.3583 18.3545C6.82969 19.7599 5.77129 21.9802 5.77129 24.6338C5.77129 24.836 5.93525 25 6.1375 25H18.8622C19.0645 25 19.2284 24.836 19.2284 24.6338C19.2284 22.0085 18.1877 19.7811 16.6492 18.3618C17.3186 18.0044 17.9451 17.5586 18.5124 17.0303C18.6603 16.8924 18.6686 16.6607 18.5307 16.5127C18.3929 16.3647 18.1612 16.3564 18.0131 16.4943C16.3368 18.0556 14.1653 18.7741 12.0325 18.6505C6.98843 18.3592 3.35635 13.4723 4.67812 8.49077C4.84321 7.86895 5.36621 7.404 6.00996 7.30562C7.72358 7.04365 9.4581 6.42036 10.7272 5.25029C10.8186 5.82666 10.8197 6.70234 10.1959 7.32607C9.96811 7.55395 10.1246 7.95395 10.4616 7.95117C11.0052 7.94116 11.9303 7.79502 12.7687 7.52383C14.1297 7.08369 15.3603 6.31401 16.2019 5.15776C17.0365 6.18296 18.1594 7.13022 19.3857 7.61035C20.2559 7.95103 20.3884 8.76987 20.3913 8.77534C20.9053 10.9531 20.4627 13.4614 18.9542 15.4529C18.8321 15.6141 18.8638 15.8438 19.025 15.9659C19.1862 16.088 19.4159 16.0563 19.538 15.8951C20.0275 15.2489 20.42 14.5502 20.7112 13.814C23.2224 14.0387 24.6757 11.042 22.9825 9.20581C22.6577 6.70205 21.4409 4.39453 19.5458 2.69697ZM15.3147 18.9376V20.1337H12.866V19.3886C13.7308 19.3534 14.559 19.1925 15.3147 18.9376ZM18.1738 22.2505H16.0472V20.8661H17.6258C17.8524 21.3062 18.0355 21.7679 18.1738 22.2505ZM15.3147 22.2505H12.866V20.8661H15.3147V22.2505ZM7.37378 20.8661H8.95244V22.2506H6.82583C6.96406 21.7679 7.14722 21.3062 7.37378 20.8661ZM9.68486 20.8661H12.1336V22.2506H9.68486V20.8661ZM9.68486 18.9339C10.4743 19.2021 11.2941 19.354 12.1336 19.3882V20.1337H9.68486V18.9339ZM12.1336 22.983V24.2676H9.68486V22.983H12.1336ZM12.866 22.983H15.3147V24.2676H12.866V22.983ZM8.95244 18.8063V20.1337H7.80483C8.16528 19.5938 8.55893 19.1511 8.95244 18.8063ZM6.65371 22.983H8.95244V24.2676H6.51059C6.52739 23.8261 6.57593 23.398 6.65371 22.983ZM16.0471 24.2676V22.983H18.3458C18.4236 23.398 18.4722 23.8261 18.489 24.2676H16.0471ZM17.1947 20.1337H16.0471V18.8063C16.4366 19.1476 16.8332 19.5915 17.1947 20.1337ZM4.04487 13.0934C2.20161 13.0934 1.33154 10.8384 2.66157 9.59458C2.69204 9.57373 3.09365 9.14624 3.80444 9.06348C3.57944 10.3695 3.64326 11.7563 4.04487 13.0934ZM20.9603 13.0933C21.3574 11.757 21.4189 10.3575 21.1954 9.06353C22.2001 9.18032 22.98 10.0383 22.98 11.0713C22.98 12.1855 22.0742 13.092 20.9603 13.0933Z"/>
</mask>
<path d="M19.5458 2.69697C17.6043 0.957813 15.102 0 12.4998 0C10.4339 0 8.43086 0.59917 6.70703 1.73267C6.53804 1.8438 6.49116 2.07085 6.60225 2.23984C6.71333 2.40884 6.94048 2.45581 7.10942 2.34463C8.71343 1.28989 10.5774 0.732422 12.4998 0.732422C14.9213 0.732422 17.2501 1.62383 19.0571 3.24253C20.638 4.65864 21.7123 6.53013 22.1359 8.58013C21.7931 8.41768 21.4017 8.32549 21.0172 8.31738C20.789 7.70054 20.3003 7.18198 19.6527 6.92837C18.4354 6.45181 17.1737 5.3227 16.4835 4.31875C16.3338 4.09795 16.0025 4.10547 15.865 4.33809C14.9033 5.96743 13.0794 6.84556 11.2182 7.13774C11.8253 5.88882 11.2923 4.46426 11.2648 4.39282C11.1666 4.1375 10.8285 4.07451 10.6465 4.28418C9.4707 5.63813 7.65801 6.31289 5.89927 6.58164C4.95513 6.72593 4.19956 7.41489 3.96626 8.31782C3.59761 8.32764 3.2106 8.41582 2.86362 8.58022C3.29038 6.51436 4.37729 4.63159 5.97827 3.21123C6.12954 3.077 6.14336 2.84556 6.00918 2.69424C5.87495 2.54297 5.64351 2.5291 5.49219 2.66333C3.57466 4.3646 2.34419 6.68403 2.01719 9.20591C1.56436 9.69697 1.28711 10.3522 1.28711 11.0713C1.28711 12.684 2.67598 13.9641 4.29717 13.8133C5.07353 15.7593 6.52573 17.3711 8.3583 18.3545C6.82969 19.7599 5.77129 21.9802 5.77129 24.6338C5.77129 24.836 5.93525 25 6.1375 25H18.8622C19.0645 25 19.2284 24.836 19.2284 24.6338C19.2284 22.0085 18.1877 19.7811 16.6492 18.3618C17.3186 18.0044 17.9451 17.5586 18.5124 17.0303C18.6603 16.8924 18.6686 16.6607 18.5307 16.5127C18.3929 16.3647 18.1612 16.3564 18.0131 16.4943C16.3368 18.0556 14.1653 18.7741 12.0325 18.6505C6.98843 18.3592 3.35635 13.4723 4.67812 8.49077C4.84321 7.86895 5.36621 7.404 6.00996 7.30562C7.72358 7.04365 9.4581 6.42036 10.7272 5.25029C10.8186 5.82666 10.8197 6.70234 10.1959 7.32607C9.96811 7.55395 10.1246 7.95395 10.4616 7.95117C11.0052 7.94116 11.9303 7.79502 12.7687 7.52383C14.1297 7.08369 15.3603 6.31401 16.2019 5.15776C17.0365 6.18296 18.1594 7.13022 19.3857 7.61035C20.2559 7.95103 20.3884 8.76987 20.3913 8.77534C20.9053 10.9531 20.4627 13.4614 18.9542 15.4529C18.8321 15.6141 18.8638 15.8438 19.025 15.9659C19.1862 16.088 19.4159 16.0563 19.538 15.8951C20.0275 15.2489 20.42 14.5502 20.7112 13.814C23.2224 14.0387 24.6757 11.042 22.9825 9.20581C22.6577 6.70205 21.4409 4.39453 19.5458 2.69697ZM15.3147 18.9376V20.1337H12.866V19.3886C13.7308 19.3534 14.559 19.1925 15.3147 18.9376ZM18.1738 22.2505H16.0472V20.8661H17.6258C17.8524 21.3062 18.0355 21.7679 18.1738 22.2505ZM15.3147 22.2505H12.866V20.8661H15.3147V22.2505ZM7.37378 20.8661H8.95244V22.2506H6.82583C6.96406 21.7679 7.14722 21.3062 7.37378 20.8661ZM9.68486 20.8661H12.1336V22.2506H9.68486V20.8661ZM9.68486 18.9339C10.4743 19.2021 11.2941 19.354 12.1336 19.3882V20.1337H9.68486V18.9339ZM12.1336 22.983V24.2676H9.68486V22.983H12.1336ZM12.866 22.983H15.3147V24.2676H12.866V22.983ZM8.95244 18.8063V20.1337H7.80483C8.16528 19.5938 8.55893 19.1511 8.95244 18.8063ZM6.65371 22.983H8.95244V24.2676H6.51059C6.52739 23.8261 6.57593 23.398 6.65371 22.983ZM16.0471 24.2676V22.983H18.3458C18.4236 23.398 18.4722 23.8261 18.489 24.2676H16.0471ZM17.1947 20.1337H16.0471V18.8063C16.4366 19.1476 16.8332 19.5915 17.1947 20.1337ZM4.04487 13.0934C2.20161 13.0934 1.33154 10.8384 2.66157 9.59458C2.69204 9.57373 3.09365 9.14624 3.80444 9.06348C3.57944 10.3695 3.64326 11.7563 4.04487 13.0934ZM20.9603 13.0933C21.3574 11.757 21.4189 10.3575 21.1954 9.06353C22.2001 9.18032 22.98 10.0383 22.98 11.0713C22.98 12.1855 22.0742 13.092 20.9603 13.0933Z" fill="#125730"/>
<path d="M19.5458 2.69697C17.6043 0.957813 15.102 0 12.4998 0C10.4339 0 8.43086 0.59917 6.70703 1.73267C6.53804 1.8438 6.49116 2.07085 6.60225 2.23984C6.71333 2.40884 6.94048 2.45581 7.10942 2.34463C8.71343 1.28989 10.5774 0.732422 12.4998 0.732422C14.9213 0.732422 17.2501 1.62383 19.0571 3.24253C20.638 4.65864 21.7123 6.53013 22.1359 8.58013C21.7931 8.41768 21.4017 8.32549 21.0172 8.31738C20.789 7.70054 20.3003 7.18198 19.6527 6.92837C18.4354 6.45181 17.1737 5.3227 16.4835 4.31875C16.3338 4.09795 16.0025 4.10547 15.865 4.33809C14.9033 5.96743 13.0794 6.84556 11.2182 7.13774C11.8253 5.88882 11.2923 4.46426 11.2648 4.39282C11.1666 4.1375 10.8285 4.07451 10.6465 4.28418C9.4707 5.63813 7.65801 6.31289 5.89927 6.58164C4.95513 6.72593 4.19956 7.41489 3.96626 8.31782C3.59761 8.32764 3.2106 8.41582 2.86362 8.58022C3.29038 6.51436 4.37729 4.63159 5.97827 3.21123C6.12954 3.077 6.14336 2.84556 6.00918 2.69424C5.87495 2.54297 5.64351 2.5291 5.49219 2.66333C3.57466 4.3646 2.34419 6.68403 2.01719 9.20591C1.56436 9.69697 1.28711 10.3522 1.28711 11.0713C1.28711 12.684 2.67598 13.9641 4.29717 13.8133C5.07353 15.7593 6.52573 17.3711 8.3583 18.3545C6.82969 19.7599 5.77129 21.9802 5.77129 24.6338C5.77129 24.836 5.93525 25 6.1375 25H18.8622C19.0645 25 19.2284 24.836 19.2284 24.6338C19.2284 22.0085 18.1877 19.7811 16.6492 18.3618C17.3186 18.0044 17.9451 17.5586 18.5124 17.0303C18.6603 16.8924 18.6686 16.6607 18.5307 16.5127C18.3929 16.3647 18.1612 16.3564 18.0131 16.4943C16.3368 18.0556 14.1653 18.7741 12.0325 18.6505C6.98843 18.3592 3.35635 13.4723 4.67812 8.49077C4.84321 7.86895 5.36621 7.404 6.00996 7.30562C7.72358 7.04365 9.4581 6.42036 10.7272 5.25029C10.8186 5.82666 10.8197 6.70234 10.1959 7.32607C9.96811 7.55395 10.1246 7.95395 10.4616 7.95117C11.0052 7.94116 11.9303 7.79502 12.7687 7.52383C14.1297 7.08369 15.3603 6.31401 16.2019 5.15776C17.0365 6.18296 18.1594 7.13022 19.3857 7.61035C20.2559 7.95103 20.3884 8.76987 20.3913 8.77534C20.9053 10.9531 20.4627 13.4614 18.9542 15.4529C18.8321 15.6141 18.8638 15.8438 19.025 15.9659C19.1862 16.088 19.4159 16.0563 19.538 15.8951C20.0275 15.2489 20.42 14.5502 20.7112 13.814C23.2224 14.0387 24.6757 11.042 22.9825 9.20581C22.6577 6.70205 21.4409 4.39453 19.5458 2.69697ZM15.3147 18.9376V20.1337H12.866V19.3886C13.7308 19.3534 14.559 19.1925 15.3147 18.9376ZM18.1738 22.2505H16.0472V20.8661H17.6258C17.8524 21.3062 18.0355 21.7679 18.1738 22.2505ZM15.3147 22.2505H12.866V20.8661H15.3147V22.2505ZM7.37378 20.8661H8.95244V22.2506H6.82583C6.96406 21.7679 7.14722 21.3062 7.37378 20.8661ZM9.68486 20.8661H12.1336V22.2506H9.68486V20.8661ZM9.68486 18.9339C10.4743 19.2021 11.2941 19.354 12.1336 19.3882V20.1337H9.68486V18.9339ZM12.1336 22.983V24.2676H9.68486V22.983H12.1336ZM12.866 22.983H15.3147V24.2676H12.866V22.983ZM8.95244 18.8063V20.1337H7.80483C8.16528 19.5938 8.55893 19.1511 8.95244 18.8063ZM6.65371 22.983H8.95244V24.2676H6.51059C6.52739 23.8261 6.57593 23.398 6.65371 22.983ZM16.0471 24.2676V22.983H18.3458C18.4236 23.398 18.4722 23.8261 18.489 24.2676H16.0471ZM17.1947 20.1337H16.0471V18.8063C16.4366 19.1476 16.8332 19.5915 17.1947 20.1337ZM4.04487 13.0934C2.20161 13.0934 1.33154 10.8384 2.66157 9.59458C2.69204 9.57373 3.09365 9.14624 3.80444 9.06348C3.57944 10.3695 3.64326 11.7563 4.04487 13.0934ZM20.9603 13.0933C21.3574 11.757 21.4189 10.3575 21.1954 9.06353C22.2001 9.18032 22.98 10.0383 22.98 11.0713C22.98 12.1855 22.0742 13.092 20.9603 13.0933Z" stroke="#125730" stroke-width="0.6" mask="url(#path-4-outside-1)"/>
</svg>
