<svg width="82" height="82" viewBox="0 0 82 82" fill="none" xmlns="http://www.w3.org/2000/svg">
<path d="M80.375 39.6875H79.0625V31.5867C79.0625 28.841 77.9941 26.2606 76.0529 24.3221C74.1117 22.3809 71.5314 21.3125 68.7869 21.3125H67.25V19.8924C70.3829 18.0732 72.5 14.6896 72.5 10.8125C72.5 5.02306 67.7894 0.3125 62 0.3125C56.2106 0.3125 51.5 5.02306 51.5 10.8125C51.5 14.6883 53.6171 18.0732 56.75 19.8924V21.3125H55.2131C52.4686 21.3125 49.8882 22.3809 47.9471 24.3221C46.0059 26.2619 44.9375 28.841 44.9375 31.5867V39.6875H42.3125V35.75C42.3125 35.0242 41.7245 34.4375 41 34.4375H37.0625V33.9873C37.0625 30.1601 38.354 26.5336 40.7204 23.5949C41.2087 23.8115 41.7455 23.9375 42.3125 23.9375C44.4834 23.9375 46.25 22.1709 46.25 20C46.25 17.8291 44.4834 16.0625 42.3125 16.0625C40.1416 16.0625 38.375 17.8291 38.375 20C38.375 20.6405 38.543 21.2351 38.8147 21.7706C35.981 25.2054 34.4375 29.4776 34.4375 33.9873V34.4375H30.5C29.7755 34.4375 29.1875 35.0242 29.1875 35.75V39.6875H27.875C27.1505 39.6875 26.5625 40.2742 26.5625 41V46.25C26.5625 46.9758 27.1505 47.5625 27.875 47.5625H29.1875V55.4375C25.5689 55.4375 22.625 58.3814 22.625 62C22.625 63.9491 23.4965 65.6829 24.8497 66.8864C22.7943 67.8236 21.0894 69.3986 20 71.366C18.9106 69.3999 17.2057 67.8249 15.1503 66.8864C16.5035 65.6829 17.375 63.9491 17.375 62C17.375 58.3814 14.4311 55.4375 10.8125 55.4375C7.19394 55.4375 4.25 58.3814 4.25 62C4.25 63.9491 5.1215 65.6829 6.47469 66.8864C2.84563 68.5415 0.3125 72.1955 0.3125 76.4375V80.375C0.3125 81.1008 0.9005 81.6875 1.625 81.6875H56.75C57.4745 81.6875 58.0625 81.1008 58.0625 80.375V79.0625H77.75C78.4745 79.0625 79.0625 78.4758 79.0625 77.75V47.5625H80.375C81.0995 47.5625 81.6875 46.9758 81.6875 46.25V41C81.6875 40.2742 81.0995 39.6875 80.375 39.6875ZM42.3125 18.6875C43.0357 18.6875 43.625 19.2755 43.625 20C43.625 20.7245 43.0357 21.3125 42.3125 21.3125C41.5893 21.3125 41 20.7245 41 20C41 19.2755 41.5893 18.6875 42.3125 18.6875ZM76.4375 31.5867V39.6875H73.8125V34.4375H71.1875V39.6875H63.3125V29.9986L66.6633 31.6734C66.8471 31.7666 67.0492 31.8125 67.25 31.8125C67.4206 31.8125 67.5912 31.7797 67.7527 31.7127C68.1044 31.5671 68.3748 31.2757 68.4956 30.9161L70.736 24.1961C72.0327 24.536 73.2245 25.2054 74.1984 26.1793C75.6421 27.623 76.4375 29.5432 76.4375 31.5867ZM57.4062 23.9375L60.0063 27.4038L57.5165 28.6494L55.9468 23.9375H57.4062ZM66.5938 23.9375H68.0546L66.4848 28.6494L63.995 27.4038L66.5938 23.9375ZM62 2.9375C65.8587 2.9375 69.0717 5.72919 69.7411 9.39762C67.2552 9.08263 64.9544 7.97225 63.155 6.17281L62.9306 5.94706C62.4384 5.45225 61.5642 5.45225 61.0721 5.94706L60.8489 6.1715C59.0482 7.97225 56.7474 9.08263 54.2615 9.39631C54.9282 5.72919 58.1413 2.9375 62 2.9375ZM54.2234 12.0554C57.1083 11.7693 59.8068 10.6025 62 8.68625C64.1932 10.6012 66.8904 11.7693 69.7766 12.0554C69.1794 15.8092 65.9191 18.6875 62 18.6875C58.0809 18.6875 54.8206 15.8092 54.2234 12.0554ZM62 21.3125C62.9082 21.3125 63.7837 21.1852 64.625 20.9673V22.1879L62 25.6871L59.375 22.1879V20.9673C60.2163 21.1852 61.0918 21.3125 62 21.3125ZM47.5625 31.5867C47.5625 29.5432 48.3579 27.6217 49.8029 26.1779C50.7768 25.2054 51.9686 24.5347 53.2653 24.1947L55.5057 30.9147C55.6265 31.2744 55.8969 31.5658 56.2486 31.7114C56.4087 31.7797 56.5794 31.8125 56.75 31.8125C56.9508 31.8125 57.1529 31.7666 57.3367 31.6747L60.6875 29.9986V39.6875H52.8125V34.4375H50.1875V39.6875H47.5625V31.5867ZM31.8125 37.0625H39.6875V39.6875H31.8125V37.0625ZM25.25 62C25.25 59.8291 27.0166 58.0625 29.1875 58.0625C31.3584 58.0625 33.125 59.8291 33.125 62C33.125 64.1709 31.3584 65.9375 29.1875 65.9375C27.0166 65.9375 25.25 64.1709 25.25 62ZM6.875 62C6.875 59.8291 8.64163 58.0625 10.8125 58.0625C12.9834 58.0625 14.75 59.8291 14.75 62C14.75 64.1709 12.9834 65.9375 10.8125 65.9375C8.64163 65.9375 6.875 64.1709 6.875 62ZM2.9375 76.4375C2.9375 72.0944 6.46944 68.5625 10.8125 68.5625C15.1556 68.5625 18.6875 72.0944 18.6875 76.4375V79.0625H2.9375V76.4375ZM21.3125 76.4375C21.3125 72.0944 24.8444 68.5625 29.1875 68.5625C33.5306 68.5625 37.0625 72.0944 37.0625 76.4375V79.0625H21.3125V76.4375ZM55.4375 79.0625H39.6875V76.4375C39.6875 72.0944 43.2194 68.5625 47.5625 68.5625C51.9056 68.5625 55.4375 72.0944 55.4375 76.4375V79.0625ZM43.625 62C43.625 59.8291 45.3916 58.0625 47.5625 58.0625C49.7334 58.0625 51.5 59.8291 51.5 62C51.5 64.1709 49.7334 65.9375 47.5625 65.9375C45.3916 65.9375 43.625 64.1709 43.625 62ZM76.4375 76.4375H58.0625C58.0625 72.1955 55.5294 68.5415 51.9003 66.8864C53.2535 65.6829 54.125 63.9491 54.125 62C54.125 58.3814 51.1811 55.4375 47.5625 55.4375C43.9439 55.4375 41 58.3814 41 62C41 63.9491 41.8715 65.6829 43.2247 66.8864C41.1693 67.8236 39.4644 69.3986 38.375 71.366C37.2856 69.3999 35.5807 67.8249 33.5253 66.8864C34.8785 65.6829 35.75 63.9491 35.75 62C35.75 59.3159 34.1264 57.0099 31.8125 55.994V47.5625H76.4375V76.4375ZM79.0625 44.9375H29.1875V42.3125H79.0625V44.9375Z" fill="#125730"/>
</svg>
