<svg width="1440" height="1326" viewBox="0 0 1440 1326" fill="none" xmlns="http://www.w3.org/2000/svg">
<path d="M0 0C0 0 332.5 78 720 78C1107.5 78 1440 0 1440 0L1440 1249C1440 1249 1115 1325.5 720 1325.5C325.001 1325.5 0.00044166 1249 0.00044166 1249L0 0Z" fill="#F8D597"/>
<mask id="mask0" mask-type="alpha" maskUnits="userSpaceOnUse" x="0" y="0" width="1441" height="1326">
<path d="M0 0C0 0 332.5 78 720 78C1107.5 78 1440 0 1440 0L1440 1249C1440 1249 1115 1325.5 720 1325.5C325.001 1325.5 0.00044166 1249 0.00044166 1249L0 0Z" fill="#F8D597"/>
</mask>
<g mask="url(#mask0)">
<path opacity="0.3" d="M420.237 1722.76C421.287 1722.76 421.287 1723.81 422.337 1723.81C615.529 1808.88 890.618 1729.06 1007.16 1550.52C1132.11 1359.37 1073.31 1032.74 842.32 958.172C753.073 929.815 624.978 946.619 521.033 998.082C599.779 945.569 693.226 907.76 787.722 902.508C889.568 897.257 949.415 962.373 999.813 1044.29C1095.36 1198.68 1136.31 1444.44 1043.91 1610.38C963.065 1756.37 695.326 1881.35 534.682 1823.59C386.638 1770.02 307.891 2001.08 454.885 2054.64C728.924 2153.37 1125.81 1972.72 1260.2 1719.61C1409.3 1439.19 1333.7 1044.29 1127.91 812.186C894.817 546.471 505.283 672.502 275.343 883.604C7.60333 1128.31 49.6016 1543.17 382.438 1709.11C395.038 1715.41 407.637 1719.61 420.237 1722.76ZM671.177 1199.73C725.774 1179.78 764.623 1183.98 788.772 1207.08C748.873 1204.98 707.925 1219.69 680.626 1256.45C677.476 1254.35 673.276 1252.24 668.027 1248.04C653.327 1237.54 632.328 1234.39 616.579 1227.04C631.278 1215.49 654.377 1206.03 671.177 1199.73ZM336.24 1262.75C335.19 1214.44 350.939 1172.42 375.088 1134.62C354.089 1177.68 347.79 1225.99 362.489 1280.6C399.237 1417.14 554.631 1501.16 692.176 1492.75C628.128 1519.01 566.181 1521.11 502.133 1492.75C495.834 1489.6 488.484 1487.5 482.184 1485.4C401.337 1437.09 338.34 1364.62 336.24 1262.75Z" fill="#F1AC2E"/>
</g>
<path d="M236.523 741.239C259.42 730.62 326.189 709.117 347.382 752.091C375.599 809.305 229.241 833.346 281.977 782.14C348.832 717.224 422.042 794.529 423.344 825.073M423.344 825.073C424.738 818.337 426.667 811.022 426.147 798.805M423.344 825.073C419.845 821.884 410.685 814.708 402.031 811.516" stroke="#F1AC2E" stroke-width="3"/>
</svg>
