<svg width="66" height="72" viewBox="0 0 66 72" fill="none" xmlns="http://www.w3.org/2000/svg">
<path d="M20.1869 28.8066V31.0371C20.1869 31.7024 20.7263 32.2418 21.3916 32.2418C22.0571 32.2418 22.5963 31.7024 22.5963 31.0371V28.8066C22.5963 28.1413 22.0571 27.602 21.3916 27.602C20.7263 27.602 20.1869 28.1413 20.1869 28.8066Z" fill="black" stroke="black" stroke-width="0.3"/>
<path d="M44.6069 27.602C43.9416 27.602 43.4022 28.1413 43.4022 28.8066V31.0371C43.4022 31.7024 43.9416 32.2418 44.6069 32.2418C45.2722 32.2418 45.8116 31.7024 45.8116 31.0371V28.8066C45.8116 28.1413 45.2722 27.602 44.6069 27.602Z" fill="black" stroke="black" stroke-width="0.3"/>
<path d="M35.151 30.1796L35.151 30.1796C35.5882 29.6781 36.3491 29.6259 36.8507 30.0631C37.3523 30.5003 37.4045 31.2612 36.9675 31.7628L36.9674 31.7629C35.9663 32.9113 34.52 33.5701 32.9989 33.5701C31.4776 33.5701 30.0313 32.9113 29.0303 31.7627L29.0302 31.7627C28.5932 31.2611 28.6454 30.5 29.147 30.063L29.1471 30.0629C29.6488 29.6259 30.4097 29.6781 30.8467 30.1797L35.151 30.1796ZM35.151 30.1796C34.6076 30.8032 33.8232 31.1606 32.9989 31.1606M35.151 30.1796L32.9989 31.1606M32.9989 31.1606C32.1746 31.1606 31.3902 30.8032 30.8468 30.1798L32.9989 31.1606Z" fill="black" stroke="black" stroke-width="0.3"/>
<mask id="path-4-outside-1" maskUnits="userSpaceOnUse" x="-0.293457" y="-1" width="66" height="74" fill="black">
<rect fill="white" x="-0.293457" y="-1" width="66" height="74"/>
<path d="M53.2916 7.76728C47.7 2.7585 40.4933 0 32.9991 0C27.0494 0 21.2805 1.72561 16.3159 4.99008C15.8292 5.31014 15.6942 5.96405 16.0141 6.45075C16.3341 6.93745 16.9882 7.07273 17.4748 6.75253C22.0943 3.71489 27.4626 2.10938 32.9991 2.10938C39.9731 2.10938 46.6799 4.67662 51.8841 9.33848C56.4371 13.4169 59.5311 18.8068 60.751 24.7108C59.7638 24.2429 58.6364 23.9774 57.5293 23.9541C56.872 22.1775 55.4646 20.6841 53.5994 19.9537C50.0938 18.5812 46.46 15.3294 44.4721 12.438C44.0411 11.8021 43.087 11.8238 42.6908 12.4937C39.9211 17.1862 34.6685 19.7152 29.308 20.5567C31.0567 16.9598 29.5214 12.8571 29.4423 12.6513C29.1593 11.916 28.1856 11.7346 27.6615 12.3384C24.2753 16.2378 19.0547 18.1811 13.9896 18.9551C11.2704 19.3707 9.0944 21.3549 8.42249 23.9553C7.36078 23.9836 6.24618 24.2376 5.2469 24.711C6.47596 18.7613 9.60628 13.339 14.2171 9.24834C14.6527 8.86177 14.6925 8.1952 14.3061 7.75941C13.9195 7.32375 13.253 7.28381 12.8172 7.67039C7.29468 12.57 3.75093 19.25 2.80917 26.513C1.50501 27.9273 0.706543 29.8145 0.706543 31.8853C0.706543 36.53 4.70648 40.2165 9.37551 39.7824C11.6114 45.3867 15.7938 50.0288 21.0716 52.8611C16.6692 56.9085 13.621 63.3029 13.621 70.9453C13.621 71.5278 14.0932 72 14.6757 72H51.3227C51.9053 72 52.3774 71.5278 52.3774 70.9453C52.3774 63.3846 49.3802 56.9696 44.9493 52.8819C46.8772 51.8528 48.6815 50.5687 50.3152 49.0472C50.7415 48.6502 50.7652 47.9828 50.3681 47.5566C49.9711 47.1303 49.3039 47.1066 48.8775 47.5037C44.0497 52.0002 37.7957 54.0695 31.6532 53.7134C17.1263 52.8746 6.66595 38.8003 10.4727 24.4534C10.9481 22.6626 12.4544 21.3235 14.3084 21.0402C19.2436 20.2857 24.239 18.4906 27.8941 15.1208C28.1571 16.7808 28.1605 19.3027 26.364 21.0991C25.7078 21.7554 26.1584 22.9074 27.129 22.8994C28.6946 22.8705 31.3589 22.4497 33.7735 21.6686C37.6932 20.401 41.2375 18.1844 43.661 14.8544C46.0649 17.8069 49.2988 20.535 52.8306 21.9178C55.3367 22.899 55.7183 25.2572 55.7265 25.273C57.2068 31.5449 55.9322 38.7689 51.5878 44.5043C51.2361 44.9686 51.3273 45.6301 51.7917 45.9818C52.2559 46.3334 52.9175 46.2423 53.2692 45.7779C54.6788 43.9168 55.8092 41.9047 56.6479 39.7844C63.8801 40.4315 68.0658 31.8011 63.1892 26.5127C62.2539 19.3019 58.7494 12.6562 53.2916 7.76728ZM41.106 54.5404V57.985H34.0538V55.8392C36.5443 55.7378 38.9297 55.2745 41.106 54.5404ZM49.3401 64.0816H43.2155V60.0943H47.7621C48.4146 61.3619 48.942 62.6916 49.3401 64.0816ZM41.106 64.0816H34.0538V60.0943H41.106V64.0816ZM18.2361 60.0944H22.7827V64.0817H16.6581C17.0562 62.6916 17.5836 61.3619 18.2361 60.0944ZM24.8921 60.0944H31.9444V64.0817H24.8921V60.0944ZM24.8921 54.5296C27.1657 55.302 29.5268 55.7394 31.9444 55.8381V57.985H24.8921V54.5296ZM31.9444 66.1909V69.8906H24.8921V66.1909H31.9444ZM34.0538 66.1909H41.106V69.8906H34.0538V66.1909ZM22.7827 54.1621V57.985H19.4776C20.5157 56.4301 21.6494 55.1552 22.7827 54.1621ZM16.1624 66.1909H22.7827V69.8906H15.7502C15.7986 68.6192 15.9383 67.3862 16.1624 66.1909ZM43.2154 69.8906V66.1909H49.8357C50.0597 67.3862 50.1995 68.6192 50.2479 69.8906H43.2154ZM46.5205 57.985H43.2154V54.1621C44.3371 55.1451 45.4793 56.4235 46.5205 57.985ZM8.6489 37.7089C3.34031 37.7089 0.834512 31.2145 4.665 27.6324C4.75275 27.5723 5.90939 26.3412 7.95646 26.1028C7.30846 29.8642 7.49226 33.8583 8.6489 37.7089ZM57.3653 37.7087C58.5089 33.8602 58.6862 29.8297 58.0424 26.103C60.9361 26.4393 63.182 28.9104 63.182 31.8853C63.1821 35.0942 60.5733 37.7051 57.3653 37.7087Z"/>
</mask>
<path d="M53.2916 7.76728C47.7 2.7585 40.4933 0 32.9991 0C27.0494 0 21.2805 1.72561 16.3159 4.99008C15.8292 5.31014 15.6942 5.96405 16.0141 6.45075C16.3341 6.93745 16.9882 7.07273 17.4748 6.75253C22.0943 3.71489 27.4626 2.10938 32.9991 2.10938C39.9731 2.10938 46.6799 4.67662 51.8841 9.33848C56.4371 13.4169 59.5311 18.8068 60.751 24.7108C59.7638 24.2429 58.6364 23.9774 57.5293 23.9541C56.872 22.1775 55.4646 20.6841 53.5994 19.9537C50.0938 18.5812 46.46 15.3294 44.4721 12.438C44.0411 11.8021 43.087 11.8238 42.6908 12.4937C39.9211 17.1862 34.6685 19.7152 29.308 20.5567C31.0567 16.9598 29.5214 12.8571 29.4423 12.6513C29.1593 11.916 28.1856 11.7346 27.6615 12.3384C24.2753 16.2378 19.0547 18.1811 13.9896 18.9551C11.2704 19.3707 9.0944 21.3549 8.42249 23.9553C7.36078 23.9836 6.24618 24.2376 5.2469 24.711C6.47596 18.7613 9.60628 13.339 14.2171 9.24834C14.6527 8.86177 14.6925 8.1952 14.3061 7.75941C13.9195 7.32375 13.253 7.28381 12.8172 7.67039C7.29468 12.57 3.75093 19.25 2.80917 26.513C1.50501 27.9273 0.706543 29.8145 0.706543 31.8853C0.706543 36.53 4.70648 40.2165 9.37551 39.7824C11.6114 45.3867 15.7938 50.0288 21.0716 52.8611C16.6692 56.9085 13.621 63.3029 13.621 70.9453C13.621 71.5278 14.0932 72 14.6757 72H51.3227C51.9053 72 52.3774 71.5278 52.3774 70.9453C52.3774 63.3846 49.3802 56.9696 44.9493 52.8819C46.8772 51.8528 48.6815 50.5687 50.3152 49.0472C50.7415 48.6502 50.7652 47.9828 50.3681 47.5566C49.9711 47.1303 49.3039 47.1066 48.8775 47.5037C44.0497 52.0002 37.7957 54.0695 31.6532 53.7134C17.1263 52.8746 6.66595 38.8003 10.4727 24.4534C10.9481 22.6626 12.4544 21.3235 14.3084 21.0402C19.2436 20.2857 24.239 18.4906 27.8941 15.1208C28.1571 16.7808 28.1605 19.3027 26.364 21.0991C25.7078 21.7554 26.1584 22.9074 27.129 22.8994C28.6946 22.8705 31.3589 22.4497 33.7735 21.6686C37.6932 20.401 41.2375 18.1844 43.661 14.8544C46.0649 17.8069 49.2988 20.535 52.8306 21.9178C55.3367 22.899 55.7183 25.2572 55.7265 25.273C57.2068 31.5449 55.9322 38.7689 51.5878 44.5043C51.2361 44.9686 51.3273 45.6301 51.7917 45.9818C52.2559 46.3334 52.9175 46.2423 53.2692 45.7779C54.6788 43.9168 55.8092 41.9047 56.6479 39.7844C63.8801 40.4315 68.0658 31.8011 63.1892 26.5127C62.2539 19.3019 58.7494 12.6562 53.2916 7.76728ZM41.106 54.5404V57.985H34.0538V55.8392C36.5443 55.7378 38.9297 55.2745 41.106 54.5404ZM49.3401 64.0816H43.2155V60.0943H47.7621C48.4146 61.3619 48.942 62.6916 49.3401 64.0816ZM41.106 64.0816H34.0538V60.0943H41.106V64.0816ZM18.2361 60.0944H22.7827V64.0817H16.6581C17.0562 62.6916 17.5836 61.3619 18.2361 60.0944ZM24.8921 60.0944H31.9444V64.0817H24.8921V60.0944ZM24.8921 54.5296C27.1657 55.302 29.5268 55.7394 31.9444 55.8381V57.985H24.8921V54.5296ZM31.9444 66.1909V69.8906H24.8921V66.1909H31.9444ZM34.0538 66.1909H41.106V69.8906H34.0538V66.1909ZM22.7827 54.1621V57.985H19.4776C20.5157 56.4301 21.6494 55.1552 22.7827 54.1621ZM16.1624 66.1909H22.7827V69.8906H15.7502C15.7986 68.6192 15.9383 67.3862 16.1624 66.1909ZM43.2154 69.8906V66.1909H49.8357C50.0597 67.3862 50.1995 68.6192 50.2479 69.8906H43.2154ZM46.5205 57.985H43.2154V54.1621C44.3371 55.1451 45.4793 56.4235 46.5205 57.985ZM8.6489 37.7089C3.34031 37.7089 0.834512 31.2145 4.665 27.6324C4.75275 27.5723 5.90939 26.3412 7.95646 26.1028C7.30846 29.8642 7.49226 33.8583 8.6489 37.7089ZM57.3653 37.7087C58.5089 33.8602 58.6862 29.8297 58.0424 26.103C60.9361 26.4393 63.182 28.9104 63.182 31.8853C63.1821 35.0942 60.5733 37.7051 57.3653 37.7087Z" fill="black"/>
<path d="M53.2916 7.76728C47.7 2.7585 40.4933 0 32.9991 0C27.0494 0 21.2805 1.72561 16.3159 4.99008C15.8292 5.31014 15.6942 5.96405 16.0141 6.45075C16.3341 6.93745 16.9882 7.07273 17.4748 6.75253C22.0943 3.71489 27.4626 2.10938 32.9991 2.10938C39.9731 2.10938 46.6799 4.67662 51.8841 9.33848C56.4371 13.4169 59.5311 18.8068 60.751 24.7108C59.7638 24.2429 58.6364 23.9774 57.5293 23.9541C56.872 22.1775 55.4646 20.6841 53.5994 19.9537C50.0938 18.5812 46.46 15.3294 44.4721 12.438C44.0411 11.8021 43.087 11.8238 42.6908 12.4937C39.9211 17.1862 34.6685 19.7152 29.308 20.5567C31.0567 16.9598 29.5214 12.8571 29.4423 12.6513C29.1593 11.916 28.1856 11.7346 27.6615 12.3384C24.2753 16.2378 19.0547 18.1811 13.9896 18.9551C11.2704 19.3707 9.0944 21.3549 8.42249 23.9553C7.36078 23.9836 6.24618 24.2376 5.2469 24.711C6.47596 18.7613 9.60628 13.339 14.2171 9.24834C14.6527 8.86177 14.6925 8.1952 14.3061 7.75941C13.9195 7.32375 13.253 7.28381 12.8172 7.67039C7.29468 12.57 3.75093 19.25 2.80917 26.513C1.50501 27.9273 0.706543 29.8145 0.706543 31.8853C0.706543 36.53 4.70648 40.2165 9.37551 39.7824C11.6114 45.3867 15.7938 50.0288 21.0716 52.8611C16.6692 56.9085 13.621 63.3029 13.621 70.9453C13.621 71.5278 14.0932 72 14.6757 72H51.3227C51.9053 72 52.3774 71.5278 52.3774 70.9453C52.3774 63.3846 49.3802 56.9696 44.9493 52.8819C46.8772 51.8528 48.6815 50.5687 50.3152 49.0472C50.7415 48.6502 50.7652 47.9828 50.3681 47.5566C49.9711 47.1303 49.3039 47.1066 48.8775 47.5037C44.0497 52.0002 37.7957 54.0695 31.6532 53.7134C17.1263 52.8746 6.66595 38.8003 10.4727 24.4534C10.9481 22.6626 12.4544 21.3235 14.3084 21.0402C19.2436 20.2857 24.239 18.4906 27.8941 15.1208C28.1571 16.7808 28.1605 19.3027 26.364 21.0991C25.7078 21.7554 26.1584 22.9074 27.129 22.8994C28.6946 22.8705 31.3589 22.4497 33.7735 21.6686C37.6932 20.401 41.2375 18.1844 43.661 14.8544C46.0649 17.8069 49.2988 20.535 52.8306 21.9178C55.3367 22.899 55.7183 25.2572 55.7265 25.273C57.2068 31.5449 55.9322 38.7689 51.5878 44.5043C51.2361 44.9686 51.3273 45.6301 51.7917 45.9818C52.2559 46.3334 52.9175 46.2423 53.2692 45.7779C54.6788 43.9168 55.8092 41.9047 56.6479 39.7844C63.8801 40.4315 68.0658 31.8011 63.1892 26.5127C62.2539 19.3019 58.7494 12.6562 53.2916 7.76728ZM41.106 54.5404V57.985H34.0538V55.8392C36.5443 55.7378 38.9297 55.2745 41.106 54.5404ZM49.3401 64.0816H43.2155V60.0943H47.7621C48.4146 61.3619 48.942 62.6916 49.3401 64.0816ZM41.106 64.0816H34.0538V60.0943H41.106V64.0816ZM18.2361 60.0944H22.7827V64.0817H16.6581C17.0562 62.6916 17.5836 61.3619 18.2361 60.0944ZM24.8921 60.0944H31.9444V64.0817H24.8921V60.0944ZM24.8921 54.5296C27.1657 55.302 29.5268 55.7394 31.9444 55.8381V57.985H24.8921V54.5296ZM31.9444 66.1909V69.8906H24.8921V66.1909H31.9444ZM34.0538 66.1909H41.106V69.8906H34.0538V66.1909ZM22.7827 54.1621V57.985H19.4776C20.5157 56.4301 21.6494 55.1552 22.7827 54.1621ZM16.1624 66.1909H22.7827V69.8906H15.7502C15.7986 68.6192 15.9383 67.3862 16.1624 66.1909ZM43.2154 69.8906V66.1909H49.8357C50.0597 67.3862 50.1995 68.6192 50.2479 69.8906H43.2154ZM46.5205 57.985H43.2154V54.1621C44.3371 55.1451 45.4793 56.4235 46.5205 57.985ZM8.6489 37.7089C3.34031 37.7089 0.834512 31.2145 4.665 27.6324C4.75275 27.5723 5.90939 26.3412 7.95646 26.1028C7.30846 29.8642 7.49226 33.8583 8.6489 37.7089ZM57.3653 37.7087C58.5089 33.8602 58.6862 29.8297 58.0424 26.103C60.9361 26.4393 63.182 28.9104 63.182 31.8853C63.1821 35.0942 60.5733 37.7051 57.3653 37.7087Z" stroke="black" stroke-width="0.6" mask="url(#path-4-outside-1)"/>
</svg>
