<svg width="72" height="72" viewBox="0 0 72 72" fill="none" xmlns="http://www.w3.org/2000/svg">
<path d="M48.6562 0C47.8797 0 47.25 0.629719 47.25 1.40625V7.875C47.25 8.65153 47.8797 9.28125 48.6562 9.28125C49.4328 9.28125 50.0625 8.65153 50.0625 7.875V1.40625C50.0625 0.629719 49.4328 0 48.6562 0Z" fill="#125730"/>
<path d="M16.3125 43.875C15.5362 43.875 14.9062 44.505 14.9062 45.2812C14.9062 46.0575 15.5362 46.6875 16.3125 46.6875C17.0887 46.6875 17.7188 46.0575 17.7188 45.2812C17.7188 44.505 17.0887 43.875 16.3125 43.875Z" fill="#125730"/>
<path d="M68.3438 41.0625C68.3438 37.9609 65.8204 35.4375 62.7188 35.4375H52.2208C53.846 31.2746 54.5039 26.3746 54.377 22.0129C54.3528 21.1805 54.3209 20.6992 54.2777 20.3961C54.205 17.3576 51.7101 14.9062 48.6562 14.9062C45.5546 14.9062 43.0312 17.4296 43.0312 20.5312V21.9375C43.0312 30.8315 31.6105 35.8286 22.9916 37.9714C22.34 36.4816 20.8524 35.4375 19.125 35.4375H5.0625C4.28597 35.4375 3.65625 36.0672 3.65625 36.8438V70.5938C3.65625 71.3703 4.28597 72 5.0625 72H19.125C20.8409 72 22.3199 70.9696 22.9783 69.4956C23.6919 69.6787 24.3544 69.8517 24.966 70.0114C29.8759 71.2938 32.5806 72 39.1584 72H54.2812C57.3829 72 59.9062 69.4766 59.9062 66.375C59.9062 65.2185 59.5551 64.1427 58.9542 63.2478C61.1266 62.488 62.7188 60.4124 62.7188 57.9375C62.7188 56.7852 62.3762 55.7059 61.7771 54.8069C63.9399 54.0458 65.5312 51.975 65.5312 49.5C65.5312 48.3435 65.1801 47.2677 64.5792 46.3728C66.7516 45.613 68.3438 43.5374 68.3438 41.0625ZM20.5312 67.7812C20.5312 68.5567 19.9004 69.1875 19.125 69.1875H6.46875V38.25H19.125C19.9004 38.25 20.5312 38.8808 20.5312 39.6562V67.7812ZM62.7188 43.875C59.7025 43.875 58.9835 43.875 55.6875 43.875C54.911 43.875 54.2812 44.5047 54.2812 45.2812C54.2812 46.0578 54.911 46.6875 55.6875 46.6875H59.9062C61.4571 46.6875 62.7188 47.9492 62.7188 49.5C62.7188 51.0533 61.4596 52.3125 59.9062 52.3125H52.875C52.0985 52.3125 51.4688 52.9422 51.4688 53.7188C51.4688 54.4953 52.0985 55.125 52.875 55.125H57.0938C58.6261 55.125 59.9062 56.3491 59.9062 57.9375C59.9062 59.4908 58.6471 60.75 57.0938 60.75C54.0775 60.75 53.3585 60.75 50.0625 60.75C49.286 60.75 48.6562 61.3797 48.6562 62.1562C48.6562 62.9328 49.286 63.5625 50.0625 63.5625H54.2812C55.8321 63.5625 57.0938 64.8242 57.0938 66.375C57.0938 67.9258 55.8321 69.1875 54.2812 69.1875H39.1584C32.9418 69.1875 30.5138 68.5534 25.6767 67.2902C24.9681 67.1051 24.1909 66.9022 23.3438 66.6862V40.7848C33.5205 38.3607 45.8438 32.4437 45.8438 21.9375V20.5312C45.8438 18.9804 47.1054 17.7188 48.6562 17.7188C50.2043 17.7188 51.4658 18.9785 51.4688 20.5269V20.5312C51.4688 21.1424 52.2315 28.6429 49.1729 35.4375H44.4375C43.661 35.4375 43.0312 36.0672 43.0312 36.8438C43.0312 37.6203 43.661 38.25 44.4375 38.25C45.4195 38.25 61.1159 38.25 62.7188 38.25C64.2696 38.25 65.5312 39.5117 65.5312 41.0625C65.5312 42.6158 64.2721 43.875 62.7188 43.875Z" fill="#125730"/>
<path d="M16.3125 49.5C15.536 49.5 14.9062 50.1297 14.9062 50.9062V62.1562C14.9062 62.9328 15.536 63.5625 16.3125 63.5625C17.089 63.5625 17.7188 62.9328 17.7188 62.1562V50.9062C17.7188 50.1297 17.089 49.5 16.3125 49.5Z" fill="#125730"/>
<path d="M37.4062 17.7188H31.7812C31.0047 17.7188 30.375 18.3485 30.375 19.125C30.375 19.9015 31.0047 20.5312 31.7812 20.5312H37.4062C38.1828 20.5312 38.8125 19.9015 38.8125 19.125C38.8125 18.3485 38.1828 17.7188 37.4062 17.7188Z" fill="#125730"/>
<path d="M65.5312 17.7188H59.9062C59.1297 17.7188 58.5 18.3485 58.5 19.125C58.5 19.9015 59.1297 20.5312 59.9062 20.5312H65.5312C66.3078 20.5312 66.9375 19.9015 66.9375 19.125C66.9375 18.3485 66.3078 17.7188 65.5312 17.7188Z" fill="#125730"/>
<path d="M61.5827 6.19862C61.0334 5.64962 60.1432 5.64962 59.5938 6.19862L55.6171 10.1753C55.0679 10.7245 55.0679 11.6149 55.6171 12.1642C56.1665 12.7133 57.0565 12.7132 57.6059 12.1642L61.5827 8.18747C62.1318 7.63833 62.1318 6.7479 61.5827 6.19862Z" fill="#125730"/>
<path d="M41.6954 10.1753L37.7187 6.19862C37.1694 5.64962 36.2793 5.64962 35.7298 6.19862C35.1807 6.74776 35.1807 7.63819 35.7298 8.18747L39.7066 12.1642C40.2561 12.7133 41.1462 12.7132 41.6954 12.1642C42.2446 11.6151 42.2446 10.7246 41.6954 10.1753Z" fill="#125730"/>
</svg>
